<?xml version="1.0" encoding="utf-8"?>
<!-- Generator: Adobe Illustrator 23.0.1, SVG Export Plug-In . SVG Version: 6.00 Build 0)  -->
<svg version="1.1" id="Camada_1" xmlns="http://www.w3.org/2000/svg" xmlns:xlink="http://www.w3.org/1999/xlink" x="0px" y="0px"
	 viewBox="0 0 35 35" style="enable-background:new 0 0 35 35;" xml:space="preserve">
<style type="text/css">
	.st0{display:none;fill:#9A999E;}
	.st1{fill:#A8A8A8;}
</style>
<path class="st0" d="M32.6,34.1H2.6c-0.8,0-1.5-0.7-1.5-1.5V2.6c0-0.8,0.7-1.5,1.5-1.5h29.9c0.8,0,1.5,0.7,1.5,1.5v29.9
	C34.1,33.4,33.4,34.1,32.6,34.1z"/>
<path class="st1" d="M0.8,17.5c0-1.1,0.1-2.2,0.3-3.2c0.4-1.9,1.1-3.8,2.1-5.4c2.6-4.1,6.2-6.7,11-7.7c5.1-1,9.8,0.1,13.8,3.4
	c3.2,2.6,5.2,6,5.9,10.2c0.6,3.3,0.1,6.6-1.3,9.7c-1.4,3.1-3.6,5.5-6.4,7.3c-2.1,1.3-4.3,2-6.7,2.4c-1.5,0.2-3,0.2-4.4,0
	c-2.8-0.4-5.4-1.5-7.7-3.3c-3.4-2.6-5.5-6-6.3-10.2C1,20.1,1,19.7,0.9,19.3C0.8,18.7,0.8,18.1,0.8,17.5z M32,17.5
	C32,9.6,25.9,3.4,18.2,3C9.9,2.6,3,9.1,3,17.5c0,7.8,6.1,14.4,14.3,14.5C25.3,32.1,31.9,25.8,32,17.5z"/>
<path class="st1" d="M22.2,16.3c1,0,2,0,3,0c0.6,0,0.9,0.3,0.9,0.9c0,0.2,0,0.4,0,0.6c0,0.7-0.3,1-1,1c-2,0-3.9,0-5.9,0
	c-0.6,0-0.5-0.1-0.5,0.5c0,1.9,0,3.8,0,5.7c0,0.9-0.3,1.2-1.2,1.2c-0.1,0-0.2,0-0.2,0c-0.8,0-1.1-0.3-1.1-1.1c0-2,0-3.9,0-5.9
	c0-0.4-0.1-0.5-0.5-0.5c-2,0-3.9,0-5.9,0c-0.8,0-1.1-0.3-1.1-1.1c0-0.1,0-0.3,0-0.4c0-0.6,0.3-0.9,1-0.9c2,0,4,0,6,0
	c0.4,0,0.5-0.1,0.5-0.5c0-1.9,0-3.9,0-5.8c0-0.9,0.3-1.1,1.2-1.2c1.1,0,1.3,0.3,1.3,1.4c0,1.9,0,3.7,0,5.6c0,0.4,0.1,0.4,0.4,0.4
	C20.2,16.3,21.2,16.3,22.2,16.3C22.2,16.3,22.2,16.3,22.2,16.3z"/>
</svg>
