<?xml version="1.0" encoding="utf-8"?>
<!-- Generator: Adobe Illustrator 23.0.1, SVG Export Plug-In . SVG Version: 6.00 Build 0)  -->
<svg version="1.1" id="Camada_1" xmlns="http://www.w3.org/2000/svg" xmlns:xlink="http://www.w3.org/1999/xlink" x="0px" y="0px"
	 viewBox="0 0 35 35" style="enable-background:new 0 0 35 35;" xml:space="preserve">
<style type="text/css">
	.st0{display:none;fill:#9A999E;}
	.st1{fill:none;stroke:#858585;stroke-width:2;stroke-miterlimit:10;}
	.st2{fill:#070308;}
</style>
<path class="st0" d="M32.6,34.1H2.6c-0.8,0-1.5-0.7-1.5-1.5V2.6c0-0.8,0.7-1.5,1.5-1.5h29.9c0.8,0,1.5,0.7,1.5,1.5v29.9
	C34.1,33.4,33.4,34.1,32.6,34.1z"/>
<path class="st1" d="M7.8,32.1H3.4c-0.8,0-1.5-0.7-1.5-1.5v-4.4c0-0.8,0.7-1.5,1.5-1.5h4.4c0.8,0,1.5,0.7,1.5,1.5v4.4
	C9.3,31.4,8.7,32.1,7.8,32.1z"/>
<path class="st1" d="M31.7,32.1H13.4c-0.8,0-1.5-0.7-1.5-1.5v-4.4c0-0.8,0.7-1.5,1.5-1.5h18.2c0.8,0,1.5,0.7,1.5,1.5v4.4
	C33.2,31.4,32.5,32.1,31.7,32.1z"/>
<path class="st1" d="M7.8,10.6H3.4c-0.8,0-1.5-0.7-1.5-1.5V4.6c0-0.8,0.7-1.5,1.5-1.5h4.4c0.8,0,1.5,0.7,1.5,1.5v4.4
	C9.3,9.9,8.7,10.6,7.8,10.6z"/>
<path class="st1" d="M31.7,10.6H13.4c-0.8,0-1.5-0.7-1.5-1.5V4.6c0-0.8,0.7-1.5,1.5-1.5h18.2c0.8,0,1.5,0.7,1.5,1.5v4.4
	C33.2,9.9,32.5,10.6,31.7,10.6z"/>
<path class="st1" d="M7.8,21.3H3.4c-0.8,0-1.5-0.7-1.5-1.5v-4.4c0-0.8,0.7-1.5,1.5-1.5h4.4c0.8,0,1.5,0.7,1.5,1.5v4.4
	C9.3,20.7,8.7,21.3,7.8,21.3z"/>
<path class="st1" d="M31.7,21.3H13.4c-0.8,0-1.5-0.7-1.5-1.5v-4.4c0-0.8,0.7-1.5,1.5-1.5h18.2c0.8,0,1.5,0.7,1.5,1.5v4.4
	C33.2,20.7,32.5,21.3,31.7,21.3z"/>
<path class="st2" d="M41.9,16.6V19c0,2.3,0,4.5,0,6.8c0,0.5,0,1,0.1,1.5c0.6,2.1,2.4,3.5,4.7,3.5l0,0c4,0,8.1,0,12.1,0h6.6
	c0.6,0,1.2-0.1,1.7-0.3c1.9-0.7,3.2-2.5,3.2-4.7c0-5.4,0-10.8,0-16.2v-3c-0.9,0-1.8,0-2.7,0s-1.8,0-2.7,0c-0.2,0-0.5,0-0.7-0.2
	C64,6.2,64,5.9,64,5.7s0-0.4-0.1-0.6c-0.5-3.7-3.3-6.4-7-6.8c-2.3-0.3-4.4,0.4-6.1,2c-0.7,0.7-1.3,1.3-1.6,2c-0.5,1-1,2.1-0.9,3.4
	c0,0.2,0,0.5-0.2,0.7c-0.3,0.2-0.6,0.2-0.8,0.2c-0.9,0-1.9,0-2.8,0c-0.8,0-1.7,0-2.5,0c0,2.7,0,5.3,0,8L41.9,16.6z M50.3,5.7
	c0.2-2.5,2.1-4.7,4.6-5.2s4.9,0.6,6.1,2.8c0.4,0.7,0.7,1.6,0.8,2.5c0,0.2,0,0.4-0.2,0.6c-0.2,0.2-0.5,0.2-0.6,0.2
	c-1.2,0-2.4,0-3.7,0h-1.7l0,0h-0.8c-1.2,0-2.4,0-3.5,0l0,0c-0.1,0-0.4,0-0.7-0.2C50.3,6.2,50.3,5.8,50.3,5.7z M44.3,9
	c0.2-0.2,0.5-0.2,0.7-0.2c0.8,0,1.6,0,2.3,0c0.2,0,0.5,0,0.7,0.2c0.2,0.2,0.2,0.6,0.2,0.7c0,0.7,0,1.5,0,2.3c0,0.4,0.2,0.7,0.7,0.9
	c0.4,0.2,0.8,0.1,1.1-0.2c0.2-0.2,0.3-0.5,0.3-0.8s0-0.6,0-0.9c0-0.4,0-0.9,0-1.3c0-0.2,0-0.4,0.2-0.6c0.2-0.2,0.5-0.2,0.6-0.2
	c3.3,0,6.6,0,9.8,0l0,0c0.2,0,0.4,0,0.6,0.2s0.2,0.5,0.2,0.6c0,0.4,0,0.7,0,1.1c0,0.4,0,0.8,0,1.2c0,0.6,0.4,1.1,1.1,1.1
	c0.3,0,0.5-0.1,0.7-0.2c0.2-0.2,0.4-0.5,0.4-0.8c0-0.7,0-1.5,0-2.2c0-0.2,0-0.5,0.2-0.7C64.3,9,64.7,9,64.8,9c0.8,0,1.5,0,2.3,0
	c0.2,0,0.5,0,0.7,0.2C68,9.4,68,9.7,68,9.9c0,1.6,0,3.2,0,4.8v1.8v2.7c0,2.3,0,4.5,0,6.8c0,0.9-0.2,1.6-0.7,2.1
	c-0.5,0.6-1.2,0.8-2,0.8l0,0c-1.4,0-2.7,0-4.1,0h-5.3h-2.7c-2.2,0-4.4,0-6.5,0l0,0c-0.8,0-1.5-0.3-2-0.8s-0.8-1.2-0.8-2
	c0-2.2,0-4.4,0-6.6v-2.6v-1.6c0-1.8,0-3.6,0-5.4C44,9.5,44,9.2,44.3,9z"/>
</svg>
