<?xml version="1.0" encoding="utf-8"?>
<!-- Generator: Adobe Illustrator 23.0.1, SVG Export Plug-In . SVG Version: 6.00 Build 0)  -->
<svg version="1.1" id="Camada_1" xmlns="http://www.w3.org/2000/svg" xmlns:xlink="http://www.w3.org/1999/xlink" x="0px" y="0px"
	 viewBox="0 0 42.8 35" style="enable-background:new 0 0 42.8 35;" xml:space="preserve">
<style type="text/css">
	.st0{display:none;fill:#9A999E;}
	.st1{fill:#A8A8A8;}
	.st2{fill:#FFFFFF;}
	.st3{fill:#858585;}
</style>
<path class="st0" d="M36.5,34.1h-30c-0.8,0-1.5-0.7-1.5-1.5v-30c0-0.8,0.7-1.5,1.5-1.5h29.9c0.8,0,1.5,0.7,1.5,1.5v29.9
	C38,33.4,37.3,34.1,36.5,34.1z"/>
<g>
	<path class="st1" d="M44.3-18.5c0,2.6,0,5.2,0,7.8c0,0.4-0.1,0.7-0.5,0.9C42.9-9.3,42-9,41-8.9c-2,0.2-4,0.2-5.9-0.6
		c-0.7-0.3-1-0.7-1-1.6c0.1-4.9,0-9.8,0-14.7c0-1.3,0.3-2.4,1.2-3.2c0.9-0.9,1-2.2,1.2-3.4c0.3-2.1,0.6-4.2,0.7-6.3
		c0-0.7,0.3-1.5,0-2.3c-0.1-0.2,0.1-0.6,0.4-0.6c1.1,0,2.1,0,3.2,0c0.3,0,0.4,0.2,0.4,0.5c-0.1,1.5,0,2.9,0.2,4.3
		c0.2,1.7,0.4,3.4,0.6,5.1c0.1,1.1,0.4,2.1,1.2,2.8c0.8,0.7,1,1.6,1,2.7C44.3-23.6,44.3-21,44.3-18.5L44.3-18.5z M35.2-20
		c0,2.1,0,4.3,0,6.5c0,0.4,0.1,0.6,0.5,0.7c2.3,0.3,4.6,0.3,6.9,0c0.4-0.1,0.6-0.2,0.6-0.7c0-3.5,0-7,0-10.5c0-0.5-0.1-0.6-0.6-0.5
		c-2,0.3-4,0.4-6,0.1c-0.2,0-0.5,0.1-0.4-0.2c0.1-1-0.4-2.1,0.6-3c0.8-0.7,1.1-1.7,1.4-2.7c0.1-0.4,0.1-0.7-0.3-0.8
		c-0.4-0.1-0.5,0.3-0.6,0.6c-0.2,1-0.6,1.8-1.3,2.5c-0.5,0.5-0.7,1.1-0.7,1.8C35.2-24.1,35.2-22.1,35.2-20z"/>
	<path class="st1" d="M53.6-35.8c1.7,0,3.4,0,5,0c1.3,0,1.6,0.3,1.8,1.5c0.6,3.9,0.6,7.9-0.3,11.8c-0.6,2.6-1.2,5.2-1,7.9
		c0,0.8,0.1,1.6,0.2,2.4c0.1,1-0.1,1.4-1,1.8c-3.2,1.2-6.4,1.1-9.6,0c-0.8-0.3-1.1-0.8-1-1.5c0.6-3.4,0.1-6.7-0.7-10
		c-1-4.2-1.1-8.4-0.4-12.7c0.2-0.9,0.6-1.2,1.5-1.2C50-35.8,51.8-35.8,53.6-35.8z M53.6-34.6c-1.6,0-3.3,0-4.9,0
		c-0.5,0-0.8,0.1-0.8,0.7c-0.6,4-0.5,8,0.5,12c0.8,3.2,1.2,6.5,0.6,9.8c-0.1,0.5,0.2,0.6,0.5,0.7c2.7,0.9,5.4,0.9,8.1,0
		c0.4-0.1,0.5-0.3,0.5-0.7c-0.5-3.1-0.2-6.1,0.5-9.1c1.1-4.2,1.3-8.5,0.6-12.8c-0.1-0.4-0.2-0.5-0.6-0.5
		C57-34.6,55.3-34.6,53.6-34.6z"/>
	<path class="st2" d="M35.2-20c0-2.1,0-4.2,0-6.2c0-0.7,0.2-1.3,0.7-1.8c0.7-0.7,1.1-1.5,1.3-2.5c0.1-0.3,0.2-0.6,0.6-0.6
		c0.4,0.1,0.4,0.4,0.3,0.8c-0.2,1-0.6,2-1.4,2.7c-0.9,0.9-0.5,2-0.6,3c0,0.3,0.3,0.2,0.4,0.2c2,0.3,4,0.2,6-0.1
		c0.5-0.1,0.6,0,0.6,0.5c0,3.5,0,7,0,10.5c0,0.5-0.1,0.6-0.6,0.7c-2.3,0.3-4.6,0.3-6.9,0c-0.4-0.1-0.6-0.2-0.5-0.7
		C35.2-15.7,35.2-17.8,35.2-20z"/>
	<path class="st2" d="M53.6-34.6c1.7,0,3.4,0,5.1,0c0.4,0,0.5,0.1,0.6,0.5c0.7,4.3,0.4,8.6-0.6,12.8c-0.8,3-1,6-0.5,9.1
		c0.1,0.4-0.1,0.6-0.5,0.7c-2.7,0.9-5.4,0.9-8.1,0c-0.3-0.1-0.6-0.2-0.5-0.7c0.5-3.3,0.1-6.6-0.6-9.8c-1-4-1.1-7.9-0.5-12
		c0.1-0.6,0.3-0.7,0.8-0.7C50.3-34.6,51.9-34.6,53.6-34.6z M54.6-30.1c-1.2,0-2.4,0-3.6,0c-0.3,0-0.5,0-0.5,0.4c0,0.8,0,1.5,0,2.2
		c0,1.4,0.2,2.7,0.5,4c0.1,0.4,0,0.6-0.3,0.7c-0.4,0.1-0.5-0.2-0.6-0.5c0-0.1,0-0.2,0-0.3c-0.5-2-0.6-4.1-0.5-6.1
		c0-0.4-0.2-0.5-0.5-0.5c-0.4,0-0.5,0.1-0.5,0.5c0,1.9,0,3.7,0.5,5.6c0.8,3.7,1.7,7.4,1.2,11.3c0,0.4,0.1,0.4,0.4,0.5
		c2,0.5,3.9,0.5,5.9,0.1c0.5-0.1,0.6-0.3,0.6-0.8c-0.3-2.6-0.1-5.3,0.5-7.9c0.7-2.9,1.2-5.7,1.1-8.7c0-0.5-0.2-0.6-0.6-0.6
		C56.9-30.1,55.7-30.1,54.6-30.1z"/>
	<path class="st1" d="M54.6-30.1c1.1,0,2.3,0,3.4,0c0.5,0,0.6,0.1,0.6,0.6c0.1,2.9-0.5,5.8-1.1,8.7c-0.6,2.6-0.8,5.2-0.5,7.9
		c0.1,0.5-0.1,0.7-0.6,0.8c-2,0.5-3.9,0.5-5.9-0.1c-0.3-0.1-0.5-0.1-0.4-0.5c0.6-3.9-0.3-7.6-1.2-11.3c-0.4-1.9-0.4-3.7-0.4-5.6
		c0-0.4,0.1-0.5,0.5-0.5c0.4,0,0.5,0.1,0.5,0.5c-0.1,2.1,0.1,4.1,0.5,6.1c0,0.1,0,0.2,0,0.3c0.1,0.3,0.2,0.6,0.6,0.5
		c0.4-0.1,0.4-0.4,0.3-0.7c-0.3-1.3-0.5-2.7-0.5-4c0-0.8,0-1.5,0-2.2c0-0.4,0.2-0.4,0.5-0.4C52.1-30.1,53.4-30.1,54.6-30.1z"/>
</g>
<g>
	<path class="st3" d="M29.7,34.2c-2.7,0-5.5,0-8.2,0c-2.5,0-4.6-2.4-4.3-4.9c0.1-0.5,0.3-1,0.6-1.4c0.1-0.2,0.2-0.3,0-0.4
		c-1.1-1.5-0.9-3.3,0.3-4.6c0.1-0.2,0.1-0.2,0-0.4c-1.4-1.7-1.4-3.5-0.1-5.2c1.4-1.9,3.4-3.1,5.6-3.9c4.6-1.7,9.1-1.5,13.5,0.7
		c1.7,0.8,3.2,2,4.3,3.5c1,1.5,1,3.4-0.2,4.7c-0.2,0.3-0.3,0.4,0,0.7c1.1,1.3,1.2,3.1,0.2,4.5c-0.1,0.1-0.2,0.2-0.1,0.4
		c1,1.2,0.9,2.4,0.4,3.7c-0.8,1.7-2.2,2.6-4.1,2.6C35.1,34.2,32.4,34.2,29.7,34.2C29.7,34.2,29.7,34.2,29.7,34.2z M29.7,21.7
		C29.7,21.7,29.7,21.7,29.7,21.7c2.9,0,5.7,0,8.6,0c0.8,0,1.3-0.3,1.7-1c0.3-0.7,0.2-1.3-0.2-1.9c-1.1-1.4-2.5-2.4-4.1-3.1
		c-3.7-1.6-7.5-1.7-11.3-0.3C22.6,16,21,17,19.8,18.5c-0.5,0.6-0.7,1.3-0.3,2c0.3,0.8,1,1.1,1.8,1.1C24.1,21.7,26.9,21.7,29.7,21.7z
		 M29.7,23.8c-2.9,0-5.7,0-8.6,0c-0.2,0-0.4,0-0.5,0c-1.1,0.2-1.7,1.5-1,2.4c0.4,0.5,0.9,0.7,1.5,0.7c5.6,0,11.2,0,16.8,0
		c0.3,0,0.7,0,1-0.1c0.6-0.1,1-0.5,1.2-1c0.3-1.1-0.4-2-1.6-2C35.6,23.8,32.7,23.8,29.7,23.8z M29.7,29C29.7,29,29.7,29,29.7,29
		c-0.2,0-0.4,0-0.5,0c-3,0-6,0-9,0c-0.5,0-0.9,0.2-0.9,0.6c0,0.2,0,0.5,0,0.7c0.3,1.1,1.2,1.8,2.4,1.8c1.9,0,3.9,0,5.8,0
		c3.3,0,6.7,0,10,0c1.3,0,2.3-0.8,2.5-2c0.1-0.8-0.2-1.1-0.9-1.1C36.1,29,32.9,29,29.7,29z"/>
	<path class="st3" d="M14.4,9.1c1.3,0,2.6,0,3.8,0c1.5,0,3,0,4.5,0c0.6,0,0.7,0.1,0.7,0.7c0,0.2,0,0.5,0,0.7c0,0.5-0.2,0.7-0.7,0.7
		c-2.6,0-5.1,0-7.7,0c-3.4,0-6.7,0-10.1,0c-0.3,0-0.4,0.1-0.4,0.4c0.2,1.6,0.3,3.2,0.5,4.9c0.2,1.9,0.4,3.8,0.6,5.7
		c0.2,2.2,0.4,4.4,0.7,6.6c0.1,1,0.2,2.1,0.3,3.1c0,0.3,0.2,0.2,0.4,0.3c2.7,0,5.4,0,8.1,0.1c0.3,0,0.4,0.1,0.6,0.4
		c0.3,0.6,0.6,1.1,1.1,1.7c-0.2,0-0.3,0-0.4,0c-3.2,0-6.4,0-9.6,0c-1.2,0-2.2-0.8-2.3-2.1c-0.2-1.9-0.4-3.8-0.6-5.7
		C4,25.6,3.9,24.8,3.8,24c-0.3-2.8-0.6-5.6-0.8-8.4c-0.1-1.4-0.3-2.8-0.4-4.2c0-0.2-0.1-0.3-0.3-0.3c-0.4,0-0.8,0-1.2,0
		c-0.4,0-0.5-0.2-0.5-0.5c0-0.3,0-0.6,0-0.9c0-0.5,0.2-0.6,0.6-0.6c2,0,4,0,6,0c1.5,0,3,0,4.5,0c0.4,0,0.5-0.1,0.6-0.5
		c0.5-2,1-4.1,1.5-6.1c0.2-0.8,0.6-1.4,1.4-1.7c0.2-0.1,0.4-0.1,0.6-0.1c1,0,2,0,2.9,0c0.4,0,0.6,0.2,0.6,0.6c0,0.2,0,0.5,0,0.7
		c0,0.6-0.2,0.7-0.7,0.7c-0.8,0-1.6,0-2.4,0c-0.2,0-0.3,0-0.4,0.2c-0.5,2-1,4-1.5,5.9C14.4,9,14.4,9.1,14.4,9.1z"/>
	<path class="st3" d="M25.6,18.5c0,0.6-0.5,1-1.1,1c-0.5,0-1.1-0.5-1-1.1c0-0.5,0.5-1.1,1.1-1.1C25.1,17.5,25.6,18,25.6,18.5z"/>
	<path class="st3" d="M28.7,17.5c0-0.6,0.4-1,1-1c0.6,0,1,0.4,1,1c0,0.6-0.5,1-1,1C29.1,18.5,28.7,18.1,28.7,17.5z"/>
	<path class="st3" d="M36,18.5c0,0.6-0.5,1-1,1c-0.5,0-1-0.5-1-1.1c0-0.6,0.5-1.1,1.1-1C35.6,17.5,36,18,36,18.5z"/>
</g>
</svg>
