<?xml version="1.0" encoding="utf-8"?>
<!-- Generator: Adobe Illustrator 23.0.1, SVG Export Plug-In . SVG Version: 6.00 Build 0)  -->
<svg version="1.1" id="Camada_1" xmlns="http://www.w3.org/2000/svg" xmlns:xlink="http://www.w3.org/1999/xlink" x="0px" y="0px"
	 viewBox="0 0 35 35" style="enable-background:new 0 0 35 35;" xml:space="preserve">
<style type="text/css">
	.st0{display:none;fill:#9A999E;}
	.st1{fill:#0D0C0E;}
	.st2{fill:#FEFFFF;}
</style>
<path class="st0" d="M32.57,34.09H2.63c-0.84,0-1.52-0.68-1.52-1.52V2.63c0-0.84,0.68-1.52,1.52-1.52h29.94
	c0.84,0,1.52,0.68,1.52,1.52v29.94C34.09,33.41,33.41,34.09,32.57,34.09z"/>
<g>
	<path class="st1" d="M14.83,24.71c0,2.6-0.01,5.19,0.01,7.79c0,0.44-0.15,0.68-0.51,0.88c-0.87,0.48-1.8,0.77-2.79,0.87
		c-2.01,0.21-4.01,0.21-5.93-0.6c-0.72-0.3-1.05-0.7-1.04-1.56c0.05-4.89,0.04-9.78,0.02-14.66c0-1.25,0.27-2.35,1.2-3.24
		c0.95-0.92,1-2.17,1.15-3.37C7.22,8.7,7.57,6.6,7.68,4.48c0.04-0.72,0.3-1.49,0-2.25C7.57,1.96,7.76,1.63,8.1,1.62
		c1.07-0.03,2.15-0.03,3.23-0.01c0.31,0,0.45,0.24,0.42,0.54c-0.15,1.46,0,2.9,0.19,4.34c0.22,1.69,0.44,3.38,0.64,5.08
		c0.12,1.07,0.44,2.05,1.23,2.82c0.75,0.73,1.02,1.64,1.02,2.67C14.82,19.61,14.83,22.16,14.83,24.71
		C14.83,24.71,14.83,24.71,14.83,24.71z M5.71,23.23c0,2.15,0.01,4.3-0.01,6.46c-0.01,0.43,0.12,0.61,0.54,0.67
		c2.31,0.32,4.61,0.34,6.92,0c0.41-0.06,0.57-0.21,0.56-0.66c-0.02-3.51-0.02-7.02,0-10.52c0-0.52-0.12-0.6-0.62-0.51
		c-1.99,0.34-4,0.36-6.01,0.11c-0.16-0.02-0.46,0.07-0.44-0.21c0.08-1.01-0.37-2.1,0.56-2.98c0.77-0.72,1.15-1.68,1.36-2.71
		c0.07-0.35,0.12-0.7-0.31-0.79c-0.4-0.09-0.51,0.25-0.56,0.56c-0.16,0.98-0.58,1.82-1.29,2.51c-0.52,0.51-0.71,1.12-0.71,1.84
		C5.72,19.06,5.71,21.15,5.71,23.23z"/>
	<path class="st1" d="M24.11,7.36c1.68,0,3.37,0,5.05,0c1.26,0,1.6,0.28,1.8,1.54c0.62,3.94,0.57,7.87-0.31,11.78
		c-0.59,2.6-1.22,5.19-1.05,7.89c0.05,0.82,0.14,1.63,0.23,2.44c0.11,0.97-0.1,1.42-1,1.75c-3.2,1.15-6.41,1.14-9.6-0.01
		c-0.79-0.28-1.11-0.77-0.99-1.49c0.57-3.39,0.15-6.7-0.66-10c-1.03-4.19-1.12-8.42-0.37-12.66c0.16-0.91,0.57-1.23,1.49-1.24
		C20.51,7.36,22.31,7.36,24.11,7.36z M24.08,8.6c-1.64,0-3.27,0.02-4.91-0.01c-0.55-0.01-0.75,0.15-0.83,0.71
		c-0.61,4.03-0.47,8.01,0.52,11.96c0.81,3.23,1.21,6.48,0.65,9.79c-0.08,0.47,0.17,0.57,0.5,0.67c2.71,0.86,5.42,0.86,8.13-0.01
		c0.38-0.12,0.51-0.29,0.45-0.7c-0.49-3.07-0.23-6.1,0.53-9.1c1.07-4.22,1.33-8.48,0.64-12.79c-0.07-0.43-0.23-0.52-0.62-0.52
		C27.45,8.61,25.77,8.6,24.08,8.6z"/>
	<path class="st2" d="M5.71,23.23c0-2.08,0.01-4.16,0-6.24c-0.01-0.72,0.19-1.33,0.71-1.84c0.71-0.69,1.13-1.53,1.29-2.51
		c0.05-0.31,0.16-0.65,0.56-0.56c0.43,0.09,0.39,0.44,0.31,0.79c-0.21,1.03-0.59,1.99-1.36,2.71c-0.94,0.87-0.48,1.97-0.56,2.98
		c-0.02,0.28,0.27,0.19,0.44,0.21c2.01,0.25,4.02,0.23,6.01-0.11c0.51-0.09,0.63,0,0.62,0.51c-0.02,3.51-0.02,7.02,0,10.52
		c0,0.45-0.15,0.6-0.56,0.66c-2.31,0.34-4.61,0.33-6.92,0c-0.43-0.06-0.55-0.24-0.54-0.67C5.73,27.53,5.71,25.38,5.71,23.23z"/>
	<path class="st2" d="M24.08,8.6c1.68,0,3.37,0.01,5.05-0.01c0.4,0,0.55,0.09,0.62,0.52c0.7,4.31,0.43,8.57-0.64,12.79
		c-0.76,3-1.02,6.03-0.53,9.1c0.07,0.41-0.07,0.58-0.45,0.7c-2.71,0.87-5.42,0.87-8.13,0.01c-0.32-0.1-0.57-0.2-0.5-0.67
		c0.55-3.31,0.15-6.56-0.65-9.79c-0.99-3.95-1.13-7.94-0.52-11.96c0.08-0.56,0.28-0.72,0.83-0.71C20.81,8.63,22.44,8.6,24.08,8.6z
		 M25.06,13.13c-1.22,0-2.43,0-3.65,0c-0.27,0-0.51-0.03-0.49,0.38c0.04,0.75,0.03,1.5,0.05,2.24c0.04,1.36,0.24,2.7,0.55,4.02
		c0.08,0.35,0.04,0.63-0.33,0.72c-0.36,0.09-0.48-0.21-0.56-0.49c-0.03-0.09-0.03-0.19-0.05-0.28c-0.46-2.02-0.61-4.07-0.54-6.13
		c0.01-0.43-0.16-0.49-0.53-0.49c-0.38,0-0.52,0.08-0.53,0.5c-0.01,1.87,0.05,3.74,0.45,5.58c0.82,3.72,1.72,7.44,1.16,11.3
		c-0.05,0.35,0.13,0.41,0.42,0.49c1.96,0.52,3.92,0.52,5.9,0.06c0.49-0.11,0.63-0.29,0.57-0.8c-0.32-2.65-0.11-5.27,0.5-7.87
		c0.67-2.85,1.23-5.71,1.14-8.66c-0.02-0.52-0.17-0.6-0.63-0.59C27.36,13.14,26.21,13.12,25.06,13.13z"/>
	<path class="st1" d="M25.06,13.12c1.15,0,2.29,0.02,3.44-0.01c0.45-0.01,0.61,0.07,0.63,0.59c0.1,2.95-0.46,5.81-1.14,8.66
		c-0.61,2.59-0.83,5.22-0.5,7.87c0.06,0.51-0.08,0.69-0.57,0.8c-1.98,0.46-3.93,0.47-5.9-0.06c-0.29-0.08-0.47-0.13-0.42-0.49
		c0.56-3.86-0.34-7.58-1.16-11.3c-0.4-1.84-0.46-3.71-0.45-5.58c0-0.42,0.15-0.5,0.53-0.5c0.37,0,0.55,0.06,0.53,0.49
		c-0.07,2.06,0.07,4.11,0.54,6.13c0.02,0.09,0.02,0.19,0.05,0.28c0.08,0.28,0.2,0.57,0.56,0.49c0.37-0.09,0.41-0.38,0.33-0.72
		c-0.31-1.32-0.51-2.66-0.55-4.02c-0.02-0.75-0.01-1.5-0.05-2.24c-0.02-0.41,0.21-0.38,0.49-0.38
		C22.63,13.13,23.85,13.13,25.06,13.12z"/>
</g>
</svg>
