<?xml version="1.0" encoding="utf-8"?>
<!-- Generator: Adobe Illustrator 23.0.1, SVG Export Plug-In . SVG Version: 6.00 Build 0)  -->
<svg version="1.1" id="Camada_1" xmlns="http://www.w3.org/2000/svg" xmlns:xlink="http://www.w3.org/1999/xlink" x="0px" y="0px"
	 viewBox="0 0 35 35" style="enable-background:new 0 0 35 35;" xml:space="preserve">
<style type="text/css">
	.st0{fill:#858585;}
	.st1{fill:#111111;}
</style>
<path class="st0" d="M3.5,19.6V22c0,2.3,0,4.5,0,6.8c0,0.5,0,1,0.1,1.5c0.6,2.1,2.4,3.5,4.7,3.5l0,0c4,0,8.1,0,12.1,0H27
	c0.6,0,1.2-0.1,1.7-0.3c1.9-0.7,3.2-2.5,3.2-4.7c0-5.4,0-10.8,0-16.2v-3c-0.9,0-1.8,0-2.7,0c-0.9,0-1.8,0-2.7,0
	c-0.2,0-0.5,0-0.7-0.2s-0.2-0.5-0.2-0.7s0-0.4-0.1-0.6c-0.5-3.7-3.3-6.4-7-6.8c-2.3-0.3-4.4,0.4-6.1,2c-0.7,0.7-1.3,1.3-1.6,2
	c-0.5,1-1,2.1-0.9,3.4c0,0.2,0,0.5-0.2,0.7C9.4,9.6,9.1,9.6,8.9,9.6c-0.9,0-1.9,0-2.8,0c-0.8,0-1.7,0-2.5,0c0,2.7,0,5.3,0,8
	L3.5,19.6z M11.9,8.7C12.1,6.2,14,4,16.5,3.5s4.9,0.6,6.1,2.8C23,7,23.3,7.9,23.4,8.8c0,0.2,0,0.4-0.2,0.6c-0.2,0.2-0.5,0.2-0.6,0.2
	c-1.2,0-2.4,0-3.7,0h-1.7l0,0h-0.8c-1.2,0-2.4,0-3.5,0l0,0c-0.1,0-0.4,0-0.7-0.2C11.9,9.2,11.9,8.8,11.9,8.7z M5.9,12
	c0.2-0.2,0.5-0.2,0.7-0.2c0.8,0,1.6,0,2.3,0c0.2,0,0.5,0,0.7,0.2s0.2,0.6,0.2,0.7c0,0.7,0,1.5,0,2.3c0,0.4,0.2,0.7,0.7,0.9
	c0.4,0.2,0.8,0.1,1.1-0.2c0.2-0.2,0.3-0.5,0.3-0.8s0-0.6,0-0.9c0-0.4,0-0.9,0-1.3c0-0.2,0-0.4,0.2-0.6c0.2-0.2,0.5-0.2,0.6-0.2
	c3.3,0,6.6,0,9.8,0l0,0c0.2,0,0.4,0,0.6,0.2s0.2,0.5,0.2,0.6c0,0.4,0,0.7,0,1.1c0,0.4,0,0.8,0,1.2c0,0.6,0.4,1.1,1.1,1.1
	c0.3,0,0.5-0.1,0.7-0.2c0.2-0.2,0.4-0.5,0.4-0.8c0-0.7,0-1.5,0-2.2c0-0.2,0-0.5,0.2-0.7s0.6-0.2,0.7-0.2c0.8,0,1.5,0,2.3,0
	c0.2,0,0.5,0,0.7,0.2s0.2,0.5,0.2,0.7c0,1.6,0,3.2,0,4.8v1.8v2.7c0,2.3,0,4.5,0,6.8c0,0.9-0.2,1.6-0.7,2.1c-0.5,0.6-1.2,0.8-2,0.8
	l0,0c-1.4,0-2.7,0-4.1,0h-5.3h-2.7c-2.2,0-4.4,0-6.5,0l0,0c-0.8,0-1.5-0.3-2-0.8s-0.8-1.2-0.8-2c0-2.2,0-4.4,0-6.6v-2.6v-1.6
	c0-1.8,0-3.6,0-5.4C5.6,12.5,5.6,12.2,5.9,12z"/>
<g>
	
		<rect x="11.3" y="21.8" transform="matrix(0.8157 -0.5784 0.5784 0.8157 -9.7596 15.2745)" class="st1" width="15.6" height="2.3"/>
	
		<rect x="8.2" y="23.4" transform="matrix(-0.5784 -0.8157 0.8157 -0.5784 -0.9838 48.6108)" class="st1" width="7.8" height="2.3"/>
</g>
</svg>
