<?xml version="1.0" encoding="utf-8"?>
<!-- Generator: Adobe Illustrator 23.0.1, SVG Export Plug-In . SVG Version: 6.00 Build 0)  -->
<svg version="1.1" id="Camada_1" xmlns="http://www.w3.org/2000/svg" xmlns:xlink="http://www.w3.org/1999/xlink" x="0px" y="0px"
	 viewBox="0 0 35 35" style="enable-background:new 0 0 35 35;" xml:space="preserve">
<style type="text/css">
	.st0{opacity:0.5;fill:#A8A8A8;enable-background:new    ;}
	.st1{fill:#A8A8A8;}
	.st2{fill:#858585;}
	.st3{fill:#848484;}
</style>
<path class="st0" d="M-138.8,7.5c0,0.3,0,0.6,0,0.9c-0.4,1.3-2.8,12-2.8,12.2c-0.1,0.6-0.5,0.9-1.1,1s-17.4,0.1-17.7,0
	c-0.2-0.6-2.9-14-3.1-15c0,0,0,0,0.1,0c0.6,0,23.3,0,23.6,0.1C-139.4,6.8-139.1,7.1-138.8,7.5z"/>
<path class="st1" d="M-160.1,23.4c0,0.3,0.1,0.3,0.4,0.3c0.6,0,15.4,0,15.5,0c1.1,0,1.7,0.8,1.4,1.9c-0.1,0.3-0.1,0.5-0.2,0.8
	c-0.1,0.5-0.1,0.5,0.4,0.8c0.1,0.1,0.3,0.2,0.4,0.3c0.5,0.5,0.8,1.2,1,1.9c0.1,0.6-0.1,1.3-0.3,1.9c-0.3,0.5-0.6,0.9-1.1,1.3
	c-0.8,0.5-1.7,0.7-2.6,0.6c-0.4-0.1-0.8-0.3-1.2-0.5c-0.5-0.4-0.8-0.8-1.1-1.3c0-0.1,0-0.2-0.1-0.3c-0.2-0.5-0.2-1.1-0.2-1.6
	c0-0.1,0.1-0.2,0.1-0.2c0.1-0.6,0.4-1.1,0.8-1.6l0.1-0.1h-0.1c-0.5,0-11.7,0-12.2,0c0,0,0,0-0.1,0l0,0c0.4,0.5,0.8,1.1,0.9,1.9
	c0.1,0.6,0,1.3-0.3,1.9c-0.3,0.5-0.7,1-1.1,1.3c-0.4,0.2-0.8,0.4-1.2,0.5c-0.9,0.1-1.7,0-2.4-0.5c-0.5-0.4-1-0.9-1.3-1.5
	c-0.2-0.6-0.3-1.2-0.3-1.8c0.2-0.7,0.4-1.4,1-1.9c0.6-0.3,0.7-0.8,0.5-1.4c-0.1-0.2-3.9-19.1-4-19.3c0-0.2,0-0.2-0.2-0.2
	c-0.5,0-4.1,0-4.3,0c-0.5-0.2-0.8-0.5-1-0.9c-0.1-0.3,0-0.7-0.1-1c0-0.3,0-0.7,0.1-1c0.3-0.6,0.8-0.9,1.5-0.9c1.9,0,3.9,0,5.8,0
	c0.9,0,1.4,0.4,1.6,1.3C-164,4.3-160.2,22.8-160.1,23.4z"/>
<path class="st2" d="M3.5,19.6l0,2.4c0,2.3,0,4.5,0,6.8c0,0.5,0,1,0.1,1.5c0.6,2.1,2.4,3.5,4.7,3.5c0,0,0,0,0,0c4,0,8.1,0,12.1,0H27
	c0.6,0,1.2-0.1,1.7-0.3c1.9-0.7,3.2-2.5,3.2-4.7c0-5.4,0-10.8,0-16.2l0-3c-0.9,0-1.8,0-2.7,0c-0.9,0-1.8,0-2.7,0
	c-0.2,0-0.5,0-0.7-0.2c-0.2-0.2-0.2-0.5-0.2-0.7c0-0.2,0-0.4-0.1-0.6c-0.5-3.7-3.3-6.4-7-6.8c-2.3-0.3-4.4,0.4-6.1,2
	c-0.7,0.7-1.3,1.3-1.6,2c-0.5,1-1,2.1-0.9,3.4c0,0.2,0,0.5-0.2,0.7C9.4,9.6,9.1,9.6,8.9,9.6c-0.9,0-1.9,0-2.8,0c-0.8,0-1.7,0-2.5,0
	c0,2.7,0,5.3,0,8L3.5,19.6z M11.9,8.7C12.1,6.2,14,4,16.5,3.5C19,3,21.4,4.1,22.6,6.3c0.4,0.7,0.7,1.6,0.8,2.5c0,0.2,0,0.4-0.2,0.6
	c-0.2,0.2-0.5,0.2-0.6,0.2c-1.2,0-2.4,0-3.7,0l-1.7,0v0l-0.8,0c-1.2,0-2.4,0-3.5,0c0,0,0,0,0,0c-0.1,0-0.4,0-0.7-0.2
	C11.9,9.2,11.9,8.8,11.9,8.7z M5.9,12c0.2-0.2,0.5-0.2,0.7-0.2c0.8,0,1.6,0,2.3,0c0.2,0,0.5,0,0.7,0.2c0.2,0.2,0.2,0.6,0.2,0.7
	c0,0.7,0,1.5,0,2.3c0,0.4,0.2,0.7,0.7,0.9c0.4,0.2,0.8,0.1,1.1-0.2c0.2-0.2,0.3-0.5,0.3-0.8c0-0.3,0-0.6,0-0.9c0-0.4,0-0.9,0-1.3
	c0-0.2,0-0.4,0.2-0.6c0.2-0.2,0.5-0.2,0.6-0.2c3.3,0,6.6,0,9.8,0c0,0,0,0,0,0c0.2,0,0.4,0,0.6,0.2c0.2,0.2,0.2,0.5,0.2,0.6
	c0,0.4,0,0.7,0,1.1c0,0.4,0,0.8,0,1.2c0,0.6,0.4,1.1,1.1,1.1c0.3,0,0.5-0.1,0.7-0.2c0.2-0.2,0.4-0.5,0.4-0.8c0-0.7,0-1.5,0-2.2
	c0-0.2,0-0.5,0.2-0.7c0.2-0.2,0.6-0.2,0.7-0.2c0.8,0,1.5,0,2.3,0c0.2,0,0.5,0,0.7,0.2c0.2,0.2,0.2,0.5,0.2,0.7c0,1.6,0,3.2,0,4.8
	l0,1.8l0,2.7c0,2.3,0,4.5,0,6.8c0,0.9-0.2,1.6-0.7,2.1c-0.5,0.6-1.2,0.8-2,0.8c0,0,0,0,0,0c-1.4,0-2.7,0-4.1,0l-5.3,0l-2.7,0
	c-2.2,0-4.4,0-6.5,0c0,0,0,0,0,0c-0.8,0-1.5-0.3-2-0.8c-0.5-0.5-0.8-1.2-0.8-2c0-2.2,0-4.4,0-6.6l0-2.6l0-1.6c0-1.8,0-3.6,0-5.4
	C5.6,12.5,5.6,12.2,5.9,12z"/>
<g>
	<path class="st3" d="M54,26.9c-4,0-8.1,0-12.1,0c-2,0-3.7-1.5-4-3.5c-0.1-1.1,0-2.2,0-3.4c0,0,0,0,0,0c0.4-0.6,0-1-0.3-1.4
		c-1.4-1.8-1-4.4,0.7-5.8c0.2-0.2,0.3-0.3,0.1-0.6c-0.9-1.8-0.9-3.6,0-5.4c1.6-3.3,4-5.9,7.1-7.8c2-1.2,4.2-2,6.6-2.3
		c4.8-0.6,9,0.9,12.7,3.9c2.1,1.7,3.7,3.8,4.9,6.3c0.8,1.7,0.7,3.5-0.2,5.1c-0.2,0.3-0.1,0.4,0.1,0.6c2,1.5,2.3,4.5,0.6,6.3
		c-0.2,0.2-0.3,0.4-0.1,0.7c0.1,0.1,0.1,0.3,0.1,0.5c0,1.5,0.3,3.1-0.5,4.5c-0.8,1.4-2,2.2-3.7,2.2C62.1,26.9,58,26.9,54,26.9
		C54,26.9,54,26.9,54,26.9z M53.9,11.9c4.1,0,8.2,0,12.2,0c1,0,1.5-0.3,1.8-1.1c0.4-1,0.4-2-0.1-3c-1.5-3-3.6-5.4-6.5-7
		c-4-2.3-8.2-2.7-12.4-1c-3.9,1.6-6.7,4.4-8.6,8.1c-0.4,0.8-0.5,1.6-0.3,2.4c0.2,1.2,0.6,1.5,1.9,1.5C45.8,11.9,49.8,11.9,53.9,11.9
		z M54,20.4c-4.2,0-8.4,0-12.6,0c-0.4,0-0.8,0-1.2,0c-0.3,0-0.4,0.1-0.4,0.4c0,0.6,0,1.2,0,1.9c0,0.3,0.1,0.6,0.2,0.9
		c0.4,0.9,1.2,1.3,2.3,1.3c7.5,0,14.9,0,22.4,0c0.4,0,0.8,0,1.2,0c1.3,0,2.3-1,2.3-2.3c0-0.5,0-1.1,0-1.6c0-0.6,0-0.6-0.6-0.6
		C63.1,20.4,58.6,20.4,54,20.4z M54,18.4c4.2,0,8.4,0,12.6,0c0.3,0,0.6,0,0.9-0.1c1-0.2,1.8-1.2,1.8-2.2c0-1.1-0.9-2-1.9-2.1
		c-0.6-0.1-1.2-0.1-1.8-0.1c-0.4,0-0.8,0.1-1.2,0.3c-1.9,0.9-3.8,1.9-5.6,2.8c-0.3,0.1-0.4,0.1-0.7,0c-1.9-1-3.8-1.9-5.8-2.9
		c-0.3-0.1-0.6-0.2-0.9-0.2c-3.2,0-6.4,0-9.6,0c-0.4,0-0.8,0-1.1,0.1c-1.1,0.1-2,1.4-1.8,2.5c0.2,1.2,1.1,2,2.5,2
		C45.5,18.4,49.8,18.4,54,18.4z"/>
	<path class="st3" d="M58.3,3.1c0,0.6-0.4,1-1,1c-0.6,0-1-0.4-1-1c0-0.6,0.4-1,1-1C57.9,2.1,58.3,2.5,58.3,3.1z"/>
	<path class="st3" d="M49.8,3.1c0-0.6,0.4-1,1-1c0.6,0,1,0.4,1,1c0,0.6-0.4,1-1,1C50.2,4.1,49.8,3.7,49.8,3.1z"/>
	<path class="st3" d="M46.4,7.4c0,0.5-0.5,1-1,1c-0.5,0-1-0.5-1-1c0-0.5,0.5-1,1-1C45.9,6.4,46.4,6.9,46.4,7.4z"/>
	<path class="st3" d="M61.7,7.5c0-0.6,0.5-1,1-1c0.5,0,1,0.5,1,1c0,0.5-0.5,1-1,1C62.2,8.5,61.7,8,61.7,7.5z"/>
</g>
</svg>
