<?xml version="1.0" encoding="utf-8"?>
<!-- Generator: Adobe Illustrator 23.0.1, SVG Export Plug-In . SVG Version: 6.00 Build 0)  -->
<svg version="1.1" id="Camada_1" xmlns="http://www.w3.org/2000/svg" xmlns:xlink="http://www.w3.org/1999/xlink" x="0px" y="0px"
	 viewBox="0 0 18 18" style="enable-background:new 0 0 18 18;" xml:space="preserve">
<style type="text/css">
	.st0{fill:#FFFFFF;}
</style>
<polygon points="35.48,17.26 32.59,15.51 31.61,18.74 30.53,15.55 27.7,17.38 28.92,14.24 25.57,13.83 28.53,12.21 26.23,9.74 
	29.53,10.4 29.35,7.03 31.47,9.66 33.49,6.97 33.42,10.34 36.71,9.58 34.49,12.11 37.49,13.64 34.16,14.16 "/>
<path class="st0" d="M18,3.87c0,0.15,0,0.31,0,0.46c-0.2,0.66-1.45,6.31-1.49,6.44c-0.07,0.3-0.26,0.49-0.56,0.55
	c-0.31,0.07-9.2,0.03-9.32,0.03c-0.11-0.38-1.54-7.47-1.64-8c0.01,0,0.02,0,0.03-0.01c0.33,0,12.29,0.02,12.44,0.03
	C17.72,3.45,17.86,3.66,18,3.87z"/>
<path class="st0" d="M6.79,12.22C6.81,12.35,6.87,12.4,7,12.35c0.33,0.02,8.12,0.01,8.17,0.02c0.58,0.02,0.88,0.42,0.76,0.98
	c-0.03,0.14-0.06,0.29-0.09,0.43c-0.06,0.27-0.06,0.27,0.19,0.4c0.07,0.06,0.14,0.12,0.22,0.18c0.27,0.29,0.44,0.63,0.51,1.02
	c0.03,0.34-0.03,0.67-0.15,0.98c-0.15,0.26-0.33,0.5-0.58,0.68c-0.42,0.28-0.88,0.35-1.36,0.3c-0.22-0.07-0.44-0.17-0.65-0.28
	c-0.25-0.2-0.44-0.44-0.61-0.71c-0.02-0.04-0.03-0.09-0.05-0.13c-0.13-0.27-0.09-0.57-0.12-0.85c0.02-0.04,0.05-0.08,0.06-0.13
	c0.06-0.32,0.21-0.59,0.42-0.83c0.02-0.02,0.03-0.03,0.05-0.05c-0.02,0-0.03,0-0.05-0.01c-0.24,0-6.19,0-6.44,0
	c-0.01,0-0.02,0.01-0.03,0.01c0.01,0.01,0.02,0.02,0.02,0.02c0.24,0.28,0.41,0.6,0.46,0.98c0.04,0.34-0.02,0.66-0.14,0.98
	c-0.15,0.28-0.35,0.52-0.6,0.71c-0.2,0.12-0.42,0.2-0.65,0.28C5.9,17.4,5.46,17.33,5.06,17.1c-0.28-0.2-0.51-0.46-0.66-0.77
	c-0.12-0.3-0.17-0.62-0.15-0.95c0.09-0.38,0.23-0.74,0.52-1.02c0.33-0.16,0.39-0.42,0.26-0.75C5,13.54,2.98,3.6,2.95,3.45
	c-0.01-0.07-0.04-0.1-0.12-0.1C2.55,3.36,0.7,3.34,0.55,3.33C0.31,3.25,0.14,3.1,0.04,2.87C-0.01,2.7,0.01,2.53,0,2.36
	c0.02-0.17-0.01-0.35,0.04-0.51c0.15-0.33,0.41-0.49,0.78-0.48c1.02,0.01,2.05,0,3.07,0c0.47,0,0.71,0.2,0.82,0.66
	C4.73,2.14,6.74,11.93,6.79,12.22z"/>
</svg>
