<?xml version="1.0" encoding="utf-8"?>
<!-- Generator: Adobe Illustrator 23.0.1, SVG Export Plug-In . SVG Version: 6.00 Build 0)  -->
<svg version="1.1" id="Camada_1" xmlns="http://www.w3.org/2000/svg" xmlns:xlink="http://www.w3.org/1999/xlink" x="0px" y="0px"
	 viewBox="0 0 35 35" style="enable-background:new 0 0 35 35;" xml:space="preserve">
<style type="text/css">
	.st0{opacity:0.5;fill:#040006;}
	.st1{fill:#040006;}
</style>
<path class="st0" d="M34.56,7.54c0,0.29,0,0.58,0,0.87c-0.37,1.25-2.75,11.96-2.82,12.21c-0.14,0.57-0.49,0.93-1.06,1.05
	c-0.59,0.13-17.44,0.06-17.67,0.05C12.8,21.01,10.09,7.56,9.89,6.56c0.02,0,0.04-0.01,0.06-0.01c0.63,0,23.31,0.04,23.58,0.06
	C34.04,6.75,34.3,7.14,34.56,7.54z"/>
<path class="st1" d="M13.31,23.36c0.04,0.25,0.15,0.34,0.39,0.26c0.63,0.05,15.39,0.03,15.49,0.03c1.09,0.04,1.67,0.79,1.44,1.86
	c-0.06,0.27-0.11,0.54-0.18,0.81c-0.12,0.52-0.12,0.51,0.37,0.76c0.14,0.11,0.27,0.23,0.41,0.34c0.51,0.55,0.84,1.2,0.96,1.94
	c0.07,0.65-0.06,1.26-0.29,1.86c-0.29,0.49-0.63,0.95-1.09,1.29c-0.79,0.52-1.66,0.66-2.58,0.57c-0.43-0.13-0.83-0.31-1.22-0.53
	c-0.47-0.38-0.84-0.83-1.15-1.34c-0.03-0.08-0.05-0.17-0.09-0.25c-0.24-0.52-0.17-1.07-0.23-1.62c0.04-0.08,0.1-0.16,0.11-0.24
	c0.12-0.6,0.4-1.11,0.8-1.57c0.03-0.03,0.06-0.06,0.09-0.09c-0.03,0-0.06-0.01-0.09-0.01c-0.46,0-11.74,0-12.2,0
	c-0.02,0.01-0.04,0.01-0.05,0.02c0.01,0.02,0.03,0.03,0.04,0.05c0.45,0.54,0.77,1.14,0.87,1.85c0.07,0.64-0.03,1.26-0.27,1.86
	c-0.28,0.53-0.66,0.98-1.14,1.34c-0.38,0.23-0.81,0.38-1.22,0.53c-0.86,0.09-1.68-0.04-2.44-0.48c-0.54-0.38-0.96-0.86-1.25-1.46
	c-0.22-0.58-0.32-1.18-0.28-1.79c0.17-0.73,0.44-1.4,0.99-1.93c0.63-0.31,0.74-0.79,0.48-1.41C9.92,25.87,6.09,7.03,6.04,6.75
	C6.02,6.62,5.96,6.55,5.81,6.56C5.28,6.57,1.76,6.54,1.48,6.52C1.04,6.36,0.71,6.08,0.51,5.65C0.43,5.33,0.47,5,0.44,4.68
	C0.47,4.35,0.42,4.02,0.51,3.7c0.29-0.63,0.77-0.93,1.48-0.92c1.94,0.02,3.88,0,5.82,0.01c0.89,0,1.35,0.38,1.55,1.26
	C9.41,4.26,13.22,22.81,13.31,23.36z"/>
</svg>
