<?xml version="1.0" encoding="utf-8"?>
<!-- Generator: Adobe Illustrator 23.0.1, SVG Export Plug-In . SVG Version: 6.00 Build 0)  -->
<svg version="1.1" id="Camada_1" xmlns="http://www.w3.org/2000/svg" xmlns:xlink="http://www.w3.org/1999/xlink" x="0px" y="0px"
	 viewBox="0 0 38 38" style="enable-background:new 0 0 38 38;" xml:space="preserve">
<style type="text/css">
	.st0{fill:#040006;}
</style>
<path class="st0" d="M4.21,0.67c0.45,0.02,0.71,0.3,0.98,0.57c4.4,4.4,8.8,8.8,13.21,13.21c0.06,0.06,0.14,0.12,0.19,0.19
	c0.28,0.4,0.5,0.4,0.87,0.02c2.33-2.37,4.69-4.71,7.04-7.06c2.13-2.13,4.26-4.26,6.39-6.39c0.74-0.74,1.16-0.73,1.91,0.02
	c0.68,0.68,1.35,1.36,2.02,2.05c0.67,0.69,0.68,1.12-0.01,1.81C32.36,9.54,27.91,14,23.44,18.42c-0.47,0.47-0.43,0.68,0.02,1.12
	c3.37,3.35,6.71,6.73,10.07,10.09c1.09,1.1,2.21,2.17,3.3,3.26c0.65,0.65,0.65,1.13,0.02,1.78c-0.7,0.72-1.4,1.44-2.11,2.14
	c-0.68,0.68-1.12,0.67-1.81-0.02c-4.46-4.47-8.93-8.93-13.37-13.42c-0.43-0.44-0.65-0.42-1.07,0.01
	c-4.39,4.44-8.81,8.86-13.22,13.28c-0.88,0.89-1.22,0.89-2.1,0c-0.66-0.67-1.32-1.33-1.97-2c-0.61-0.63-0.62-1.13-0.03-1.73
	c2.05-2.08,4.06-4.2,6.16-6.23c2.49-2.4,4.88-4.89,7.37-7.29c0.41-0.39,0.32-0.58-0.03-0.93C10.22,14.07,5.79,9.63,1.36,5.2
	c-0.92-0.92-0.9-1.22,0.03-2.1c0.68-0.64,1.33-1.32,1.98-2C3.61,0.85,3.89,0.68,4.21,0.67z"/>
</svg>
