<?xml version="1.0" encoding="utf-8"?>
<!-- Generator: Adobe Illustrator 23.0.1, SVG Export Plug-In . SVG Version: 6.00 Build 0)  -->
<svg version="1.1" id="Camada_1" xmlns="http://www.w3.org/2000/svg" xmlns:xlink="http://www.w3.org/1999/xlink" x="0px" y="0px"
	 viewBox="0 0 18 18" style="enable-background:new 0 0 18 18;" xml:space="preserve">
<style type="text/css">
	.st0{fill:#FFFFFF;}
</style>
<path class="st0" d="M14.68,4.15c-0.46,0-0.83-0.37-0.83-0.83V0L18,4.15H14.68z"/>
<path class="st0" d="M13.85,0H0.83C0.37,0,0,0.37,0,0.83v16.34C0,17.63,0.37,18,0.83,18h0.15l2.08-2.08c0.32-0.32,0.85-0.32,1.18,0
	l2.08,2.08l2.08-2.08c0.32-0.32,0.85-0.32,1.18,0l2.08,2.08l2.08-2.08c0.32-0.32,0.85-0.32,1.17,0L16.98,18h0.19
	c0.46,0,0.83-0.37,0.83-0.83V4.15L13.85,0z M15.09,13.41H2.91c-0.46,0-0.83-0.37-0.83-0.83c0-0.46,0.37-0.83,0.83-0.83h12.18
	c0.46,0,0.83,0.37,0.83,0.83C15.92,13.04,15.55,13.41,15.09,13.41z M15.09,10.99H2.91c-0.46,0-0.83-0.37-0.83-0.83
	c0-0.46,0.37-0.83,0.83-0.83h12.18c0.46,0,0.83,0.37,0.83,0.83C15.92,10.62,15.55,10.99,15.09,10.99z M15.09,8.57H2.91
	c-0.46,0-0.83-0.37-0.83-0.83c0-0.46,0.37-0.83,0.83-0.83h12.18c0.46,0,0.83,0.37,0.83,0.83C15.92,8.2,15.55,8.57,15.09,8.57z
	 M15.09,6.15H2.91c-0.46,0-0.83-0.37-0.83-0.83c0-0.46,0.37-0.83,0.83-0.83h12.18c0.46,0,0.83,0.37,0.83,0.83
	C15.92,5.78,15.55,6.15,15.09,6.15z"/>
</svg>
