<?xml version="1.0" encoding="utf-8"?>
<!-- Generator: Adobe Illustrator 23.0.1, SVG Export Plug-In . SVG Version: 6.00 Build 0)  -->
<svg version="1.1" id="Camada_1" xmlns="http://www.w3.org/2000/svg" xmlns:xlink="http://www.w3.org/1999/xlink" x="0px" y="0px"
	 viewBox="0 0 35 35" style="enable-background:new 0 0 35 35;" xml:space="preserve">
<style type="text/css">
	.st0{display:none;fill:#9A999E;}
	.st1{fill:#FFFFFF;}
	.st2{fill:#858585;}
</style>
<path class="st0" d="M32.6,34.1h-30c-0.8,0-1.5-0.7-1.5-1.5v-30c0-0.8,0.7-1.5,1.5-1.5h29.9c0.8,0,1.5,0.7,1.5,1.5v29.9
	C34.1,33.4,33.4,34.1,32.6,34.1z"/>
<path class="st1" d="M4.4,16.8c0,0.7,0,1.4,0,2.1c0,0,0,0.1,0.1,0.1c0.8,0,1.6,0,2.4,0h0.7h13.9c0.1,0,0.2,0,0.4,0h0.2
	c0.7,0,1.2,0.4,1.4,1s0,1.3-0.4,1.7l-8.5,8.1c-0.1,0.1-0.3,0.3-0.4,0.4c-0.2,0.2-0.2,0.2,0,0.4l0.4,0.4c0.4,0.3,0.7,0.7,1.1,1.1
	c0,0.1,0.1,0.1,0.2,0.1c0,0,0.1,0,0.2-0.1c0.7-0.7,1.4-1.4,2.1-2.1l4-4c2.8-2.8,5.5-5.6,8.3-8.3c0.1-0.1,0.1-0.2,0.1-0.3
	c0-0.2-0.1-0.3-0.1-0.3c-3.5-3.5-7-7-10.6-10.5L16.3,3C16.1,2.9,16,2.8,16,2.8c-0.1,0-0.2,0.1-0.4,0.3c-0.5,0.4-0.9,0.8-1.3,1.2
	C14,4.6,14,4.7,14,4.7s0.1,0.1,0.2,0.4l8.4,8l0.4,0.3c0.5,0.4,0.6,1.1,0.4,1.7c-0.2,0.6-0.8,1-1.4,1L4.9,16c-0.4,0-0.5,0.1-0.5,0.1
	c0,0.1,0,0.1,0,0.3V16.8z"/>
<path class="st2" d="M52.5,10.6V13c0,2.3,0,4.5,0,6.8c0,0.5,0,1,0.1,1.5c0.6,2.1,2.4,3.5,4.7,3.5l0,0c4,0,8.1,0,12.1,0H76
	c0.6,0,1.2-0.1,1.7-0.3c1.9-0.7,3.2-2.5,3.2-4.7c0-5.4,0-10.8,0-16.2v-3c-0.9,0-1.8,0-2.7,0c-0.9,0-1.8,0-2.7,0
	c-0.2,0-0.5,0-0.7-0.2s-0.2-0.5-0.2-0.7s0-0.4-0.1-0.6c-0.5-3.7-3.3-6.4-7-6.8c-2.3-0.3-4.4,0.4-6.1,2c-0.7,0.7-1.3,1.3-1.6,2
	c-0.5,1-1,2.1-0.9,3.4c0,0.2,0,0.5-0.2,0.7c-0.3,0.2-0.6,0.2-0.8,0.2c-0.9,0-1.9,0-2.8,0c-0.8,0-1.7,0-2.5,0c0,2.7,0,5.3,0,8
	L52.5,10.6z M60.9-0.3C61.1-2.8,63-5,65.5-5.5s4.9,0.6,6.1,2.8C72-2,72.3-1.1,72.4-0.2c0,0.2,0,0.4-0.2,0.6s-0.5,0.2-0.6,0.2
	c-1.2,0-2.4,0-3.7,0h-1.7l0,0h-0.8c-1.2,0-2.4,0-3.5,0l0,0c-0.1,0-0.4,0-0.7-0.2C60.9,0.2,60.9-0.2,60.9-0.3z M54.9,3
	c0.2-0.2,0.5-0.2,0.7-0.2c0.8,0,1.6,0,2.3,0c0.2,0,0.5,0,0.7,0.2s0.2,0.6,0.2,0.7c0,0.7,0,1.5,0,2.3c0,0.4,0.2,0.7,0.7,0.9
	c0.4,0.2,0.8,0.1,1.1-0.2c0.2-0.2,0.3-0.5,0.3-0.8s0-0.6,0-0.9c0-0.4,0-0.9,0-1.3c0-0.2,0-0.4,0.2-0.6s0.5-0.2,0.6-0.2
	c3.3,0,6.6,0,9.8,0l0,0c0.2,0,0.4,0,0.6,0.2s0.2,0.5,0.2,0.6c0,0.4,0,0.7,0,1.1s0,0.8,0,1.2c0,0.6,0.4,1.1,1.1,1.1
	c0.3,0,0.5-0.1,0.7-0.2c0.2-0.2,0.4-0.5,0.4-0.8c0-0.7,0-1.5,0-2.2c0-0.2,0-0.5,0.2-0.7C74.9,3,75.3,3,75.4,3c0.8,0,1.5,0,2.3,0
	c0.2,0,0.5,0,0.7,0.2s0.2,0.5,0.2,0.7c0,1.6,0,3.2,0,4.8v1.8v2.7c0,2.3,0,4.5,0,6.8c0,0.9-0.2,1.6-0.7,2.1c-0.5,0.6-1.2,0.8-2,0.8
	l0,0c-1.4,0-2.7,0-4.1,0h-5.3h-2.7c-2.2,0-4.4,0-6.5,0l0,0c-0.8,0-1.5-0.3-2-0.8s-0.8-1.2-0.8-2c0-2.2,0-4.4,0-6.6v-2.6V9.3
	c0-1.8,0-3.6,0-5.4C54.6,3.5,54.6,3.2,54.9,3z"/>
</svg>
