<?xml version="1.0" encoding="utf-8"?>
<!-- Generator: Adobe Illustrator 23.0.1, SVG Export Plug-In . SVG Version: 6.00 Build 0)  -->
<svg version="1.1" id="Camada_1" xmlns="http://www.w3.org/2000/svg" xmlns:xlink="http://www.w3.org/1999/xlink" x="0px" y="0px"
	 viewBox="0 0 35 35" style="enable-background:new 0 0 35 35;" xml:space="preserve">
<style type="text/css">
	.st0{display:none;fill:#9A999E;}
	.st1{fill:#141414;stroke:#141414;stroke-width:0.1;stroke-miterlimit:10;}
	.st2{fill:#2C2B2C;}
</style>
<path class="st0" d="M32.6,34.1h-30c-0.8,0-1.5-0.7-1.5-1.5v-30c0-0.8,0.7-1.5,1.5-1.5h29.9c0.8,0,1.5,0.7,1.5,1.5v29.9
	C34.1,33.4,33.4,34.1,32.6,34.1z"/>
<path class="st1" d="M30.8,23.5c0,2.5,0,5.1,0,7.6c0,0.2-0.1,0.4,0.1,0.5c0.1,0,0,0.2,0,0.3c0,0.3-0.4,0.4-0.4,0.6
	c-0.1,0.4-0.5,0.1-0.6,0.4c0,0-0.1,0-0.1,0c-0.2-0.3-0.5-0.2-0.8-0.2c-7.7,0-15.4,0-23.1,0c-0.1,0-0.3-0.1-0.4,0.1
	c0,0.1-0.2,0.1-0.3,0c-0.1-0.1-0.2-0.1-0.4-0.1c-0.1,0-0.2,0-0.1-0.1c0-0.1,0.1-0.1,0-0.2c-0.3-0.1-0.4-0.2-0.4-0.6
	c0-0.1-0.1-0.2,0-0.4c0.1-0.1,0-0.2,0-0.3c0-5.2,0-10.4,0-15.6c0-0.1,0-0.2,0-0.3c-0.1-0.1-0.2,0-0.3,0.1c-0.5,0.4-1.1,0.9-1.6,1.3
	c-0.1,0-0.2,0.1-0.2,0.2c0,0.4-0.3,0.3-0.5,0.3c-0.2,0-0.4-0.1-0.5-0.4c-0.1-0.3-0.3-0.6-0.7-0.8c-0.2-0.1-0.2-0.3-0.2-0.5
	c0-0.2,0.1-0.4,0.3-0.4c0.2,0,0.3-0.1,0.4-0.2c2.3-1.8,4.5-3.7,6.8-5.5c2.5-2,5-4,7.4-6c0.3-0.2,0.6-0.4,0.7-0.8
	c0-0.1,0.1-0.1,0.2-0.1c0.1,0,0.2-0.1,0.3-0.1c0.2-0.1,0.3-0.2,0.6-0.1c0.2,0.1,0.6,0.1,0.8,0c0.3-0.1,0.4,0,0.6,0.1
	c0.1,0.1,0.3,0.2,0.4,0.2c0,0,0.1,0,0.1,0c0.1,0.5,0.6,0.7,1,1c1.8,1.5,3.7,3,5.6,4.5c1.6,1.3,3.3,2.6,4.9,3.9
	c1.2,0.9,2.3,1.9,3.5,2.8c0.1,0.1,0.3,0.2,0.5,0.2c0.3,0,0.2,0.3,0.2,0.5c0,0.2,0,0.3-0.3,0.4c-0.3,0.1-0.5,0.4-0.6,0.8
	c-0.1,0.3-0.3,0.3-0.5,0.3c-0.2,0-0.4,0.1-0.4-0.2c0-0.1-0.1-0.2-0.2-0.2c-0.5-0.4-1.1-0.9-1.6-1.3c-0.1-0.1-0.2-0.2-0.3-0.1
	c-0.1,0.1-0.1,0.2-0.1,0.3C30.8,18.3,30.8,20.9,30.8,23.5z M6.2,22.2c0,2.7,0,5.3,0,8c0,0.4,0,0.5,0.5,0.5c1.9,0,3.7,0,5.6,0
	c0.4,0,0.5-0.1,0.5-0.5c0-3.1,0-6.2,0-9.3c0-0.1,0-0.2,0-0.3c-0.2-0.2,0-0.3,0-0.4c0-0.3,0.1-0.4,0.4-0.5c0,0,0.1-0.1,0.1-0.1
	c-0.1-0.2,0-0.3,0.2-0.2c0.1,0,0.2,0,0.2-0.1c0.1-0.1,0.3-0.1,0.3,0c0.1,0.1,0.2,0.1,0.3,0.1c2.2,0,4.4,0,6.6,0c0.1,0,0.2,0,0.3-0.1
	c0.3-0.3,0.5,0.2,0.8,0c0,0,0.1,0.1,0,0.1c-0.1,0.1,0,0.1,0.1,0.2c0.3,0.1,0.3,0.3,0.4,0.5c0,0.1,0.1,0.3,0,0.3
	c-0.1,0.1-0.1,0.2-0.1,0.3c0,3.1,0,6.3,0,9.4c0,0.3,0.1,0.4,0.4,0.4c1.9,0,3.8,0,5.7,0c0.3,0,0.4-0.1,0.4-0.4c0-5.4,0-10.7,0-16.1
	c0-0.3-0.2-0.6-0.3-0.7c-1.2-1-2.4-1.9-3.5-2.9c-2.3-1.8-4.5-3.7-6.8-5.5c-0.2-0.2-0.5,0-0.6-0.3c0,0-0.1,0-0.1,0.1
	c0,0.1-0.1,0.1-0.1,0.1c-0.2,0-0.4,0.1-0.5,0.2c-3.4,2.7-6.8,5.5-10.1,8.2c-0.3,0.2-0.4,0.5-0.4,0.9C6.2,16.9,6.2,19.6,6.2,22.2z
	 M20.3,26c0-1.4,0-2.8,0-4.2c0-0.4-0.1-0.5-0.5-0.5c-1.6,0-3.1,0-4.7,0c-0.4,0-0.5,0.1-0.5,0.5c0,2.8,0,5.6,0,8.4
	c0,0.4,0.1,0.5,0.5,0.5c1.6,0,3.1,0,4.7,0c0.4,0,0.5-0.1,0.5-0.5C20.3,28.8,20.3,27.4,20.3,26z"/>
<path class="st2" d="M752.7,816.5c2.3,0,4.1,0,5.9,0C756.1,820.6,756.1,820.6,752.7,816.5z"/>
</svg>
