<?xml version="1.0" encoding="utf-8"?>
<!-- Generator: Adobe Illustrator 23.0.1, SVG Export Plug-In . SVG Version: 6.00 Build 0)  -->
<svg version="1.1" id="Camada_1" xmlns="http://www.w3.org/2000/svg" xmlns:xlink="http://www.w3.org/1999/xlink" x="0px" y="0px"
	 viewBox="0 0 35 35" style="enable-background:new 0 0 35 35;" xml:space="preserve">
<style type="text/css">
	.st0{display:none;fill:#9A999E;}
	.st1{fill:#A8A8A8;}
	.st2{fill:#848484;}
</style>
<path class="st0" d="M32.6,34.1h-30c-0.8,0-1.5-0.7-1.5-1.5v-30c0-0.8,0.7-1.5,1.5-1.5h29.9c0.8,0,1.5,0.7,1.5,1.5v29.9
	C34.1,33.4,33.4,34.1,32.6,34.1z"/>
<g>
	<path class="st1" d="M-37.5,10.4c-4.1,0-8.2,0-12.3,0c-1.5,0-3-0.1-3.8-1.6c-0.9-1.7-0.3-3.4,0.9-4.7c5.1-5.8,11.6-7.6,19.1-6.3
		c4.5,0.7,8.4,2.8,11.3,6.4c1,1.3,1.6,2.8,0.8,4.4c-0.8,1.7-2.5,1.8-4.1,1.8C-29.6,10.4-33.6,10.4-37.5,10.4z"/>
	<path class="st1" d="M-37.6,23.9c4.3,0,8.6,0,12.9,0c1.3,0,3.3-0.8,3.6,1.4c0.2,1.7-0.6,3.3-2.2,4.3c-1,0.6-2.1,0.7-3.2,0.7
		c-7.3,0-14.7,0-22,0c-1.7,0-3.2-0.3-4.3-1.6c-0.9-1.1-1.4-2.4-1.1-3.7c0.4-1.5,2-1.1,3.1-1.1C-46.4,23.9-42,23.9-37.6,23.9z"/>
	<path class="st1" d="M-24.4,13.3h-4.3c-0.4,0-0.8,0.2-1,0.5c-0.9,1-2.7,3-2.7,3c-0.6,0.6-1.5,0.6-2.1,0c0,0-1.8-2.1-2.7-3
		c-0.3-0.3-0.6-0.5-1-0.5h-12.6c-2,0-3.6,1.8-3.6,4l0,0c0,2.2,1.6,4,3.6,4h26.5c2,0,3.6-1.8,3.6-4l0,0
		C-20.8,15.1-22.4,13.3-24.4,13.3z"/>
</g>
<g>
	<path class="st2" d="M17.5,32.3c-4,0-8.1,0-12.1,0c-2,0-3.7-1.5-4-3.5c-0.1-1.1,0-2.2,0-3.4c0,0,0,0,0,0c0.4-0.6,0-1-0.3-1.4
		c-1.4-1.8-1-4.4,0.7-5.8C2,18,2,17.9,1.9,17.6C1,15.8,1,14,1.9,12.2c1.6-3.3,4-5.9,7.1-7.8c2-1.2,4.2-2,6.6-2.3
		c4.8-0.6,9,0.9,12.7,3.9c2.1,1.7,3.7,3.8,4.9,6.3c0.8,1.7,0.7,3.5-0.2,5.1c-0.2,0.3-0.1,0.4,0.1,0.6c2,1.5,2.3,4.5,0.6,6.3
		c-0.2,0.2-0.3,0.4-0.1,0.7c0.1,0.1,0.1,0.3,0.1,0.5c0,1.5,0.3,3.1-0.5,4.5c-0.8,1.4-2,2.2-3.7,2.2C25.5,32.3,21.5,32.3,17.5,32.3
		C17.5,32.3,17.5,32.3,17.5,32.3z M17.3,17.2c4.1,0,8.2,0,12.2,0c1,0,1.5-0.3,1.8-1.1c0.4-1,0.4-2-0.1-3c-1.5-3-3.6-5.4-6.5-7
		c-4-2.3-8.2-2.7-12.4-1c-3.9,1.6-6.7,4.4-8.6,8.1c-0.4,0.8-0.5,1.6-0.3,2.4c0.2,1.2,0.6,1.5,1.9,1.5C9.3,17.2,13.3,17.2,17.3,17.2z
		 M17.5,25.8c-4.2,0-8.4,0-12.6,0c-0.4,0-0.8,0-1.2,0c-0.3,0-0.4,0.1-0.4,0.4c0,0.6,0,1.2,0,1.9c0,0.3,0.1,0.6,0.2,0.9
		c0.4,0.9,1.2,1.3,2.3,1.3c7.5,0,14.9,0,22.4,0c0.4,0,0.8,0,1.2,0c1.3,0,2.3-1,2.3-2.3c0-0.5,0-1.1,0-1.6c0-0.6,0-0.6-0.6-0.6
		C26.6,25.8,22,25.8,17.5,25.8z M17.5,23.7c4.2,0,8.4,0,12.6,0c0.3,0,0.6,0,0.9-0.1c1-0.2,1.8-1.2,1.8-2.2c0-1.1-0.9-2-1.9-2.1
		c-0.6-0.1-1.2-0.1-1.8-0.1c-0.4,0-0.8,0.1-1.2,0.3c-1.9,0.9-3.8,1.9-5.6,2.8c-0.3,0.1-0.4,0.1-0.7,0c-1.9-1-3.8-1.9-5.8-2.9
		c-0.3-0.1-0.6-0.2-0.9-0.2c-3.2,0-6.4,0-9.6,0c-0.4,0-0.8,0-1.1,0.1c-1.1,0.1-2,1.4-1.8,2.5c0.2,1.2,1.1,2,2.5,2
		C9,23.7,13.2,23.7,17.5,23.7z"/>
	<path class="st2" d="M21.8,8.4c0,0.6-0.4,1-1,1c-0.6,0-1-0.4-1-1c0-0.6,0.4-1,1-1C21.4,7.4,21.8,7.8,21.8,8.4z"/>
	<path class="st2" d="M13.2,8.4c0-0.6,0.4-1,1-1c0.6,0,1,0.4,1,1c0,0.6-0.4,1-1,1C13.7,9.5,13.2,9,13.2,8.4z"/>
	<path class="st2" d="M9.8,12.8c0,0.5-0.5,1-1,1c-0.5,0-1-0.5-1-1c0-0.5,0.5-1,1-1C9.4,11.8,9.8,12.2,9.8,12.8z"/>
	<path class="st2" d="M25.2,12.8c0-0.6,0.5-1,1-1c0.5,0,1,0.5,1,1c0,0.5-0.5,1-1,1C25.7,13.8,25.2,13.3,25.2,12.8z"/>
</g>
</svg>
