<?xml version="1.0" encoding="utf-8"?>
<!-- Generator: Adobe Illustrator 23.0.1, SVG Export Plug-In . SVG Version: 6.00 Build 0)  -->
<svg version="1.1" id="Camada_1" xmlns="http://www.w3.org/2000/svg" xmlns:xlink="http://www.w3.org/1999/xlink" x="0px" y="0px"
	 viewBox="0 0 35 35" style="enable-background:new 0 0 35 35;" xml:space="preserve">
<style type="text/css">
	.st0{display:none;fill:#9A999E;}
	.st1{fill:#070308;}
</style>
<path class="st0" d="M32.57,34.09H2.63c-0.84,0-1.52-0.68-1.52-1.52V2.63c0-0.84,0.68-1.52,1.52-1.52h29.94
	c0.84,0,1.52,0.68,1.52,1.52v29.94C34.09,33.41,33.41,34.09,32.57,34.09z"/>
<g>
	<path class="st1" d="M17.58,13.58c-4.09,0-8.17-0.02-12.26,0.01c-1.55,0.01-3.05-0.09-3.83-1.63c-0.88-1.74-0.3-3.39,0.88-4.73
		c5.09-5.76,11.66-7.49,19.1-6.26c4.52,0.74,8.41,2.8,11.29,6.42c1.03,1.3,1.59,2.8,0.83,4.42c-0.82,1.74-2.45,1.79-4.12,1.78
		C25.5,13.57,21.54,13.58,17.58,13.58z"/>
	<path class="st1" d="M17.48,27.14c4.28,0,8.57-0.05,12.85,0.03c1.31,0.03,3.3-0.78,3.57,1.38c0.21,1.7-0.57,3.28-2.18,4.28
		c-0.98,0.61-2.07,0.66-3.18,0.66c-7.34,0-14.69-0.02-22.03,0.01c-1.67,0.01-3.16-0.29-4.3-1.58c-0.94-1.06-1.4-2.4-1.08-3.67
		c0.4-1.54,1.96-1.1,3.13-1.11C8.67,27.12,13.08,27.14,17.48,27.14z"/>
	<path class="st1" d="M30.72,16.5h-4.31c-0.39,0-0.75,0.17-1.03,0.48c-0.85,0.96-2.68,3.02-2.68,3.02c-0.58,0.65-1.52,0.65-2.09,0
		c0,0-1.83-2.06-2.68-3.02c-0.27-0.31-0.64-0.48-1.03-0.48H4.28c-1.96,0-3.56,1.79-3.56,3.98v0c0,2.19,1.6,3.98,3.56,3.98h26.45
		c1.96,0,3.56-1.79,3.56-3.98v0C34.29,18.29,32.68,16.5,30.72,16.5z"/>
</g>
</svg>
