<?xml version="1.0" encoding="utf-8"?>
<!-- Generator: Adobe Illustrator 23.0.1, SVG Export Plug-In . SVG Version: 6.00 Build 0)  -->
<svg version="1.1" id="Camada_1" xmlns="http://www.w3.org/2000/svg" xmlns:xlink="http://www.w3.org/1999/xlink" x="0px" y="0px"
	 viewBox="0 0 35 35" style="enable-background:new 0 0 35 35;" xml:space="preserve">
<style type="text/css">
	.st0{display:none;fill:#9A999E;}
	.st1{fill:#BF0811;}
</style>
<path class="st0" d="M32.6,34.1H2.6c-0.8,0-1.5-0.7-1.5-1.5V2.6c0-0.8,0.7-1.5,1.5-1.5h29.9c0.8,0,1.5,0.7,1.5,1.5v29.9
	C34.1,33.4,33.4,34.1,32.6,34.1z"/>
<path class="st1" d="M285.5,223.2c0-8.1,0-16.2,0-24.2c0-0.6-0.1-0.9-0.8-0.8c-0.7,0.1-1.5,0-2.3,0c-0.9,0-1.1-0.3-1.2-1.2
	c0-0.5,0-1.1,0-1.6c0-1.1,0.3-1.4,1.4-1.4c2.6,0,5.2,0,7.9,0c1.7,0,3.3,0,5,0c0.5,0,0.8-0.1,1-0.5c1.4-1.9,2.8-3.8,4.3-5.7
	c1.2-1.5,2.8-2.3,4.7-2.3c3.7,0,7.4,0,11.1,0c2,0,3.5,0.8,4.7,2.3c1.4,1.7,2.7,3.5,4,5.3c0.5,0.7,1,0.9,1.8,0.9c4.1,0,8.1,0,12.2,0
	c1.4,0,1.6,0.2,1.6,1.6c0,0.5,0,1,0,1.6c0,0.8-0.4,1.1-1.1,1.1c-0.8,0-1.6,0-2.3,0c-0.6,0-0.8,0.1-0.8,0.8c0,6.9,0,13.7,0,20.6
	c0,9.2,0,18.3,0,27.5c0,3.2-1.9,5.7-4.9,6.5c-0.5,0.1-0.9,0.1-1.4,0.1c-12.9,0-25.7,0-38.6,0c-3.4,0-6.2-2.7-6.3-6.1
	c-0.1-5,0-10,0-15C285.5,229.3,285.5,226.3,285.5,223.2z M289.8,223C289.8,223,289.8,223,289.8,223c0,7.9,0,15.8,0,23.8
	c0,1.8,0.8,2.6,2.6,2.6c12.5,0,25,0,37.5,0c1.8,0,2.6-0.8,2.6-2.6c0-15.9,0-31.9,0-47.8c0-0.7-0.2-0.8-0.8-0.8
	c-13.7,0-27.4,0-41.1,0c-0.7,0-0.8,0.2-0.8,0.8C289.8,207,289.8,215,289.8,223z M320.7,193.9c-0.9-1.2-1.7-2.3-2.5-3.3
	c-0.4-0.6-1.1-0.9-1.8-0.9c-3.5,0-7,0-10.5,0c-0.6,0-1.2,0.2-1.6,0.7c-0.9,1.1-1.7,2.3-2.7,3.5C308,193.9,314.3,193.9,320.7,193.9z"
	/>
<path class="st1" d="M309,223.8c0-5.8,0-11.7,0-17.5c0-1.3,0.3-1.7,1.6-1.7c0.4,0,0.8,0,1.2,0c1.1,0,1.4,0.4,1.4,1.5
	c0,2.8,0,5.7,0,8.5c0,8.9,0,17.8,0,26.7c0,1.4-0.3,1.7-1.7,1.7c-2.6,0-2.6,0-2.6-2.6C309,234.8,309,229.3,309,223.8z"/>
<path class="st1" d="M302.6,223.8c0,5.9,0,11.7,0,17.6c0,1.3-0.3,1.6-1.6,1.6c-0.4,0-0.8,0-1.2,0c-1.1,0-1.5-0.4-1.5-1.4
	c0-7.3,0-14.7,0-22c0-4.4,0-8.9,0-13.3c0-1.3,0.3-1.6,1.6-1.6c0.4,0,0.7,0,1.1,0c1.2,0,1.5,0.3,1.5,1.5
	C302.6,212,302.6,217.9,302.6,223.8z"/>
<path class="st1" d="M323.9,223.8c0,5.9,0,11.8,0,17.7c0,1.1-0.4,1.4-1.4,1.5c-0.5,0-0.9,0-1.4,0c-1,0-1.4-0.4-1.4-1.4
	c0-5.7,0-11.4,0-17.1c0-6.1,0-12.2,0-18.2c0-1.3,0.3-1.6,1.7-1.6c0.4,0,0.9,0,1.3,0c0.9,0.1,1.2,0.4,1.2,1.3c0,3.4,0,6.8,0,10.1
	C323.9,218.6,323.9,221.2,323.9,223.8z"/>
<path class="st1" d="M5.3,19.3c0-3.9,0-7.7,0-11.6c0-0.3-0.1-0.4-0.4-0.4c-0.4,0-0.7,0-1.1,0c-0.4,0-0.5-0.2-0.6-0.6
	c0-0.3,0-0.5,0-0.8c0-0.5,0.2-0.7,0.7-0.7c1.3,0,2.5,0,3.8,0c0.8,0,1.6,0,2.4,0c0.2,0,0.4-0.1,0.5-0.2c0.7-0.9,1.3-1.8,2-2.7
	c0.6-0.7,1.3-1.1,2.3-1.1c1.8,0,3.5,0,5.3,0c0.9,0,1.7,0.4,2.3,1.1C23,3.2,23.7,4,24.3,4.9c0.2,0.3,0.5,0.4,0.9,0.4
	c1.9,0,3.9,0,5.8,0c0.6,0,0.8,0.1,0.8,0.7c0,0.2,0,0.5,0,0.7c0,0.4-0.2,0.5-0.5,0.5c-0.4,0-0.7,0-1.1,0c-0.3,0-0.4,0.1-0.4,0.4
	c0,3.3,0,6.5,0,9.8c0,4.4,0,8.7,0,13.1c0,1.5-0.9,2.7-2.3,3.1c-0.2,0.1-0.4,0.1-0.7,0.1c-6.1,0-12.3,0-18.4,0c-1.6,0-3-1.3-3-2.9
	c0-2.4,0-4.8,0-7.2C5.3,22.2,5.3,20.7,5.3,19.3z M7.3,19.1C7.3,19.1,7.3,19.1,7.3,19.1c0,3.8,0,7.6,0,11.3c0,0.9,0.4,1.3,1.2,1.3
	c6,0,11.9,0,17.9,0c0.9,0,1.2-0.4,1.2-1.2c0-7.6,0-15.2,0-22.8c0-0.3-0.1-0.4-0.4-0.4c-6.5,0-13.1,0-19.6,0c-0.3,0-0.4,0.1-0.4,0.4
	C7.3,11.5,7.3,15.3,7.3,19.1z M22.1,5.3c-0.4-0.6-0.8-1.1-1.2-1.6c-0.2-0.3-0.5-0.4-0.9-0.4c-1.7,0-3.3,0-5,0
	c-0.3,0-0.6,0.1-0.8,0.3c-0.4,0.5-0.8,1.1-1.3,1.7C16,5.3,19,5.3,22.1,5.3z"/>
<path class="st1" d="M16.5,19.5c0-2.8,0-5.6,0-8.4c0-0.6,0.1-0.8,0.8-0.8c0.2,0,0.4,0,0.6,0c0.5,0,0.7,0.2,0.7,0.7
	c0,1.4,0,2.7,0,4.1c0,4.2,0,8.5,0,12.7c0,0.7-0.1,0.8-0.8,0.8c-1.3,0-1.3,0-1.3-1.2C16.5,24.8,16.5,22.2,16.5,19.5z"/>
<path class="st1" d="M13.4,19.5c0,2.8,0,5.6,0,8.4c0,0.6-0.1,0.8-0.8,0.8c-0.2,0-0.4,0-0.6,0c-0.5,0-0.7-0.2-0.7-0.7
	c0-3.5,0-7,0-10.5c0-2.1,0-4.2,0-6.4c0-0.6,0.1-0.8,0.8-0.8c0.2,0,0.3,0,0.5,0c0.6,0,0.7,0.2,0.7,0.7C13.4,13.9,13.4,16.7,13.4,19.5
	z"/>
<path class="st1" d="M23.6,19.6c0,2.8,0,5.6,0,8.4c0,0.5-0.2,0.7-0.7,0.7c-0.2,0-0.4,0-0.7,0c-0.5,0-0.7-0.2-0.7-0.7
	c0-2.7,0-5.5,0-8.2c0-2.9,0-5.8,0-8.7c0-0.6,0.1-0.8,0.8-0.8c0.2,0,0.4,0,0.6,0c0.4,0,0.6,0.2,0.6,0.6c0,1.6,0,3.2,0,4.8
	C23.6,17.1,23.6,18.3,23.6,19.6z"/>
</svg>
