<?xml version="1.0" encoding="utf-8"?>
<!-- Generator: Adobe Illustrator 23.0.1, SVG Export Plug-In . SVG Version: 6.00 Build 0)  -->
<svg version="1.1" id="Camada_1" xmlns="http://www.w3.org/2000/svg" xmlns:xlink="http://www.w3.org/1999/xlink" x="0px" y="0px"
	 viewBox="0 0 35 35" style="enable-background:new 0 0 35 35;" xml:space="preserve">
<style type="text/css">
	.st0{fill:#2C2B2C;}
</style>
<path d="M8.3,22.1c0-1.3,0-2.6,0-3.9c0-1.1,0.9-2.1,2-2c0.6,0,0.6,0,0.6-0.6c0-0.8,0-1.6,0-2.4c0-1,0.3-1.8,0.7-2.7
	c0.7-1.3,1.7-2.4,3.1-2.9c1.7-0.7,3.4-0.8,5.1-0.1C21.2,8,22.3,8.9,23,10c0.7,1.1,1,2.4,1,3.7c0,0.7,0,1.5,0,2.2
	c0,0.2,0,0.3,0.2,0.3c0.4,0,0.9,0,1.3,0.2c0.4,0.2,0.6,0.5,0.8,0.8c0.2,0.3,0.2,0.5,0.2,0.9c0,2.7,0,5.4,0,8c0,0.8-0.5,1.3-1.2,1.7
	C25.2,28,25,28,24.7,28c-2.4,0-4.8,0-7.2,0c-2.4,0-4.8,0-7.3,0c-0.9,0-1.7-0.7-1.9-1.4c-0.1-0.2,0-0.4,0-0.6
	C8.3,24.7,8.3,23.4,8.3,22.1z M17.5,26.7C17.5,26.7,17.5,26.7,17.5,26.7c2.4,0,4.7,0,7.1,0c0.5,0,0.8-0.2,0.8-0.8c0-2.5,0-5.1,0-7.6
	c0-0.6-0.3-0.8-0.8-0.8c-4.7,0-9.4,0-14.1,0c-0.5,0-0.8,0.3-0.8,0.8c0,2.5,0,5.1,0,7.6c0,0.5,0.3,0.8,0.8,0.8
	C12.8,26.7,15.1,26.7,17.5,26.7z M17.5,16.2C17.5,16.2,17.5,16.2,17.5,16.2c1.7,0,3.4,0,5,0c0.2,0,0.2,0,0.2-0.2c0-0.8,0-1.5,0-2.3
	c0-1.1-0.3-2.1-0.9-3c-1-1.4-2.3-2.2-4.1-2.3C16.3,8.2,15,8.7,14,9.7c-1,1-1.6,2.1-1.7,3.5c-0.1,0.9,0,1.8,0,2.7
	c0,0.2,0,0.2,0.2,0.2C14.1,16.2,15.8,16.2,17.5,16.2z"/>
<path class="st0" d="M-425.3,396.2c-0.5-1.2-1.8,0.3-2.4-0.7c0.9-0.6,1.7-0.6,2.6,0c0.1,0,0.1,0.3,0,0.4c-0.1,0.1-0.2,0.3-0.3,0.4
	C-425.4,396.3-425.3,396.2-425.3,396.2z"/>
</svg>
