<?xml version="1.0" encoding="utf-8"?>
<!-- Generator: Adobe Illustrator 23.0.1, SVG Export Plug-In . SVG Version: 6.00 Build 0)  -->
<svg version="1.1" id="Camada_1" xmlns="http://www.w3.org/2000/svg" xmlns:xlink="http://www.w3.org/1999/xlink" x="0px" y="0px"
	 viewBox="0 0 35 35" style="enable-background:new 0 0 35 35;" xml:space="preserve">
<g>
	<path d="M17.5,28c-2.9,0-5.8,0-8.6,0c-0.5,0-0.9-0.3-1.1-0.8c-0.1-0.2-0.1-0.3-0.1-0.5c0-0.9-0.1-1.8,0.2-2.7c0.3-1.3,1-2.3,2.1-3
		c1.1-0.7,2.2-0.9,3.5-0.8c0.5,0,1.1,0.1,1.6,0.2c0.5,0.1,0.9,0.3,1.3,0.4c1,0.2,2,0.2,3-0.1c0.7-0.2,1.4-0.3,2.2-0.4
		c0.6,0,1.2-0.1,1.8,0c1,0.2,1.9,0.7,2.7,1.4c0.9,1,1.4,2.2,1.5,3.6c0,0.6,0.1,1.1,0,1.7c-0.1,0.6-0.6,1-1.2,1
		C23.3,28,20.4,28,17.5,28z M17.5,26.7c1.6,0,3.1,0,4.7,0c1.3,0,2.5,0,3.8,0c0.1,0,0.2,0.1,0.2-0.1c0-0.8,0-1.7-0.2-2.5
		c-0.5-1.5-1.5-2.4-3-2.5c-1.2-0.1-2.3-0.1-3.5,0.3c-1,0.3-2.1,0.3-3.1,0.2c-0.5-0.1-0.9-0.2-1.3-0.3c-0.9-0.2-1.8-0.2-2.6-0.2
		c-1.4,0-2.8,1.1-3.3,2.5c-0.3,0.8-0.3,1.6-0.3,2.5c0,0.2,0,0.3,0.2,0.3C11.9,26.7,14.7,26.7,17.5,26.7z"/>
	<path d="M17.5,7c3-0.1,5.5,2.6,5.5,5.9c0,3.3-2.4,5.9-5.6,5.9c-3.1,0-5.5-2.6-5.6-5.9C11.9,9.6,14.5,7,17.5,7z M17.5,17.5
		c2.2,0,4.3-1.9,4.3-4.6c0-2.6-2-4.6-4.2-4.6c-2.3-0.1-4.4,1.9-4.4,4.6C13.2,15.5,15.1,17.5,17.5,17.5z"/>
</g>
</svg>
