<?xml version="1.0" encoding="utf-8"?>
<!-- Generator: Adobe Illustrator 23.0.1, SVG Export Plug-In . SVG Version: 6.00 Build 0)  -->
<svg version="1.1" id="Camada_1" xmlns="http://www.w3.org/2000/svg" xmlns:xlink="http://www.w3.org/1999/xlink" x="0px" y="0px"
	 viewBox="0 0 35 35" style="enable-background:new 0 0 35 35;" xml:space="preserve">
<style type="text/css">
	.st0{display:none;fill:#9A999E;}
	.st1{fill:#070308;}
</style>
<path class="st0" d="M32.57,34.09H2.63c-0.84,0-1.52-0.68-1.52-1.52V2.63c0-0.84,0.68-1.52,1.52-1.52h29.94
	c0.84,0,1.52,0.68,1.52,1.52v29.94C34.09,33.41,33.41,34.09,32.57,34.09z"/>
<g>
	<g>
		<path class="st1" d="M17.37,32.69c-5.08,0-10.17,0-15.25,0c-1.03,0-1.37-0.35-1.37-1.41c0-0.53-0.01-1.07,0-1.6
			c0.01-0.74,0.43-1.16,1.16-1.16c10.31,0,20.62,0,30.92,0c0.72,0,1.15,0.43,1.16,1.16c0.01,0.59,0,1.17,0,1.76
			c0,0.87-0.39,1.25-1.25,1.25C27.62,32.69,22.49,32.69,17.37,32.69z"/>
		<path class="st1" d="M17.37,34.21c-5.08,0-10.17,0-15.25,0c-1.03,0-1.37-0.13-1.37-0.51c0-0.19-0.01-0.39,0-0.58
			c0.01-0.27,0.43-0.42,1.16-0.42c10.31,0,20.62,0,30.92,0c0.72,0,1.15,0.15,1.16,0.42c0.01,0.21,0,0.42,0,0.63
			c0,0.31-0.39,0.45-1.25,0.45C27.62,34.21,22.49,34.21,17.37,34.21z"/>
		<ellipse class="st1" cx="12.18" cy="28.52" rx="5.54" ry="2.84"/>
		
			<ellipse transform="matrix(0.4323 -0.9017 0.9017 0.4323 -22.4542 22.4935)" class="st1" cx="6.64" cy="29.08" rx="2.84" ry="5.54"/>
		<ellipse class="st1" cx="19.44" cy="28.52" rx="5.54" ry="2.84"/>
		<ellipse class="st1" cx="26.43" cy="28.5" rx="6.49" ry="2.84"/>
		<path class="st1" d="M32.55,15.37c-0.87-2.66-2.38-4.89-4.52-6.7c-1.14-0.96-2.4-1.73-3.78-2.28C24.11,6.34,24.03,6.27,24,6.18
			l-0.65-0.15C23.1,5.97,22.94,5.72,23,5.47c0.06-0.25,0.31-0.41,0.56-0.36l0.68,0.15c0.12-0.14,0.32-0.1,0.81,0.01
			c0.04,0.01,0.07,0.02,0.11,0.02c0.69,0.14,1.16-0.14,1.34-0.83c0.08-0.31,0.15-0.61,0.21-0.92c0.11-0.6-0.18-1.11-0.77-1.25
			c-2.03-0.48-4.07-0.95-6.1-1.4c-0.6-0.13-1.08,0.2-1.24,0.79c-0.08,0.28-0.14,0.57-0.2,0.85c-0.17,0.77,0.13,1.24,0.91,1.42
			c0.52,0.12,0.74,0.18,0.78,0.38l0.65,0.15c0.25,0.06,0.41,0.31,0.36,0.56C21.05,5.3,20.8,5.46,20.54,5.4l-0.65-0.15
			c-0.06,0.06-0.15,0.07-0.27,0.07c-0.39-0.02-0.78-0.04-1.17-0.03c-2.35,0.06-4.56,0.65-6.64,1.76c-2.96,1.57-5.02,3.98-6.45,6.96
			c-0.32,0.66-0.5,1.38-0.68,2.1c-0.09,0.36-0.05,0.49,0.34,0.58c4.58,1.03,9.15,2.08,13.73,3.13c4.59,1.05,9.17,2.1,13.76,3.15
			c0.3,0.07,0.41,0.02,0.47-0.3C33.46,20.2,33.33,17.76,32.55,15.37z"/>
		
			<rect x="16.56" y="25.81" transform="matrix(0.8106 0.5856 -0.5856 0.8106 20.0911 -6.0802)" class="st1" width="5.76" height="4.41"/>
		
			<rect x="9.3" y="25.81" transform="matrix(0.8106 0.5856 -0.5856 0.8106 18.7148 -1.8252)" class="st1" width="5.76" height="4.41"/>
	</g>
</g>
</svg>
