<?xml version="1.0" encoding="utf-8"?>
<!-- Generator: Adobe Illustrator 23.0.1, SVG Export Plug-In . SVG Version: 6.00 Build 0)  -->
<svg version="1.1" id="Camada_1" xmlns="http://www.w3.org/2000/svg" xmlns:xlink="http://www.w3.org/1999/xlink" x="0px" y="0px"
	 viewBox="0 0 35 35" style="enable-background:new 0 0 35 35;" xml:space="preserve">
<style type="text/css">
	.st0{display:none;fill:#9A999E;}
	.st1{fill:#A8A8A8;}
	.st2{fill:#858585;}
</style>
<path class="st0" d="M32.6,34.1h-30c-0.8,0-1.5-0.7-1.5-1.5v-30c0-0.8,0.7-1.5,1.5-1.5h29.9c0.8,0,1.5,0.7,1.5,1.5v29.9
	C34.1,33.4,33.4,34.1,32.6,34.1z"/>
<g>
	<g>
		<path class="st1" d="M-51.5,27.1c-5.1,0-10.2,0-15.3,0c-1,0-1.4-0.3-1.4-1.4c0-0.5,0-1.1,0-1.6c0-0.7,0.4-1.2,1.2-1.2
			c10.3,0,20.6,0,30.9,0c0.7,0,1.2,0.4,1.2,1.2c0,0.6,0,1.2,0,1.8c0,0.9-0.4,1.3-1.3,1.3C-41.3,27.1-46.4,27.1-51.5,27.1z"/>
		<path class="st1" d="M-51.5,28.6c-5.1,0-10.2,0-15.3,0c-1,0-1.4-0.1-1.4-0.5c0-0.2,0-0.4,0-0.6c0-0.3,0.4-0.4,1.2-0.4
			c10.3,0,20.6,0,30.9,0c0.7,0,1.2,0.2,1.2,0.4s0,0.4,0,0.6c0,0.3-0.4,0.5-1.3,0.5C-41.3,28.6-46.4,28.6-51.5,28.6z"/>
		<ellipse class="st1" cx="-56.7" cy="22.9" rx="5.5" ry="2.8"/>
		
			<ellipse transform="matrix(0.4323 -0.9017 0.9017 0.4323 -56.5815 -42.7953)" class="st1" cx="-62.3" cy="23.5" rx="2.8" ry="5.5"/>
		<ellipse class="st1" cx="-49.5" cy="22.9" rx="5.5" ry="2.8"/>
		<ellipse class="st1" cx="-42.5" cy="22.9" rx="6.5" ry="2.8"/>
		<path class="st1" d="M-36.4,9.8c-0.9-2.7-2.4-4.9-4.5-6.7c-1.1-1-2.4-1.7-3.8-2.3c-0.1-0.1-0.2-0.1-0.2-0.2l-0.6-0.2
			c-0.3,0-0.5-0.3-0.4-0.5c0.1-0.2,0.3-0.4,0.6-0.4l0.7,0.2c0.1-0.1,0.3-0.1,0.8,0h0.1c0.7,0.1,1.2-0.1,1.3-0.8
			c0.1-0.3,0.1-0.6,0.2-0.9c0.1-0.6-0.2-1.1-0.8-1.3c-2-0.5-4.1-1-6.1-1.4c-0.6-0.1-1.1,0.2-1.2,0.8c-0.1,0.3-0.1,0.6-0.2,0.9
			c-0.2,0.8,0.1,1.2,0.9,1.4c0.5,0.1,0.7,0.2,0.8,0.4l0.6,0.2c0.3-0.1,0.4,0.2,0.4,0.4c0,0.3-0.3,0.4-0.6,0.4L-49-0.4
			c-0.1,0.1-0.1,0.1-0.3,0.1c-0.4,0-0.8,0-1.2,0c-2.4,0.1-4.6,0.7-6.6,1.8c-3,1.6-5,4-6.4,7c-0.3,0.7-0.5,1.4-0.7,2.1
			c-0.1,0.4-0.1,0.5,0.3,0.6c4.6,1,9.1,2.1,13.7,3.1s9.2,2.1,13.8,3.1c0.3,0.1,0.4,0,0.5-0.3C-35.4,14.6-35.6,12.2-36.4,9.8z"/>
		
			<rect x="-51.7" y="19.6" transform="matrix(0.5856 -0.8106 0.8106 0.5856 -38.7235 -30.8275)" class="st1" width="4.4" height="5.8"/>
		
			<rect x="-58.9" y="19.5" transform="matrix(0.5856 -0.8106 0.8106 0.5856 -41.6798 -36.7067)" class="st1" width="4.4" height="5.8"/>
	</g>
</g>
<path class="st2" d="M19.9,23.5c-0.8,0-1.5,0-2.3,0c-0.3,0-0.5,0.1-0.7,0.3c-0.8,0.8-1.6,1.6-2.4,2.4c-0.4,0.4-0.4,0.8-0.3,1.2
	c0.2,0.5,0.3,1.1,0.3,1.7c0,2.2-1.4,4-3.6,4.5c-2.3,0.5-4.6-0.9-5.3-3.1c-0.1-0.2-0.1-0.4-0.1-0.6c0-0.4-0.2-0.5-0.5-0.5
	c-1.9-0.2-3.2-1.6-3.7-3.3c-0.8-2.7,1.1-5.3,3.6-5.6c0.7-0.1,1.5-0.1,2.1,0.2c0.7,0.3,1.3,0.2,1.8-0.4c0.7-0.7,1.4-1.4,2.1-2.1
	c0.2-0.2,0.3-0.4,0.3-0.7c0-1.3,0-2.6,0-3.9c0-1.9,0.3-3.8,1.3-5.5c1.6-3,3.9-5.3,7.2-6.2c3.7-1,7-0.4,10,2c2,1.6,3.1,3.7,3.6,6.1
	c0.1,0.6,0.1,1.2,0.1,1.8c0,0.7-0.6,1.1-1.2,0.9c-1.3-0.4-2.6-0.3-3.9,0.1c-2.2,0.8-3.9,3-4,5.4c-0.1,1.2,0.2,2.3,0.8,3.4
	c0.4,0.8,0.2,1.4-0.7,1.6c-0.9,0.2-1.8,0.3-2.8,0.4C21.3,23.6,20.6,23.5,19.9,23.5C19.9,23.5,19.9,23.5,19.9,23.5z M23.2,21.5
	c-1.1-2.9-0.7-5.5,1.1-7.9c1.8-2.4,4.3-3.3,7.3-3.1c0-0.2,0-0.3,0-0.4c-0.5-2.3-1.8-4.2-3.8-5.4c-2.4-1.5-5-1.8-7.7-0.9
	c-1.7,0.6-3,1.7-4.2,3c-1.5,1.8-2.4,3.8-2.5,6.1c-0.1,1.9,0,3.9,0,5.9c0,1.6,1.4,2.9,3,2.9c2,0,4,0,6,0
	C22.6,21.6,22.9,21.5,23.2,21.5z M11.8,20.2c-0.5,0.5-0.9,0.9-1.4,1.4c-1,1.1-2.1,1.4-3.5,0.9c-0.6-0.2-1.1-0.2-1.7-0.1
	c-1,0.3-1.7,1.1-1.8,2.2c-0.2,1.7,1,2.9,2.4,2.9c0.5,0,0.9,0,1.4,0.1c0.3,0,0.4,0.1,0.4,0.4c0,0.5,0,1,0.1,1.4
	c0.1,0.5,0.2,1,0.5,1.4c0.6,0.9,1.6,1.1,2.6,0.9c1.1-0.2,2-1,2.1-2.1c0.1-0.5-0.1-1.1-0.3-1.6c-0.3-1.2-0.1-2.3,0.8-3.2
	c0.4-0.4,0.8-0.8,1.2-1.2c0.1-0.1,0.2-0.2,0.3-0.3C13.4,22.6,12.3,21.7,11.8,20.2z"/>
</svg>
