<?xml version="1.0" encoding="utf-8"?>
<!-- Generator: Adobe Illustrator 23.0.1, SVG Export Plug-In . SVG Version: 6.00 Build 0)  -->
<svg version="1.1" id="Camada_1" xmlns="http://www.w3.org/2000/svg" xmlns:xlink="http://www.w3.org/1999/xlink" x="0px" y="0px"
	 viewBox="0 0 18 18" style="enable-background:new 0 0 18 18;" xml:space="preserve">
<style type="text/css">
	.st0{fill:#FFFFFF;}
</style>
<path class="st0" d="M3.34,17.47H0.95C0.42,17.47,0,17.04,0,16.52v-2.39c0-0.52,0.43-0.95,0.95-0.95h2.39
	c0.52,0,0.95,0.43,0.95,0.95v2.39C4.29,17.04,3.87,17.47,3.34,17.47z"/>
<path class="st0" d="M17.05,17.47H6.71c-0.52,0-0.95-0.43-0.95-0.95v-2.39c0-0.52,0.43-0.95,0.95-0.95h10.34
	c0.52,0,0.95,0.43,0.95,0.95v2.39C18,17.04,17.58,17.47,17.05,17.47z"/>
<path class="st0" d="M3.34,5.1H0.95C0.42,5.1,0,4.68,0,4.15V1.76c0-0.52,0.43-0.95,0.95-0.95h2.39c0.52,0,0.95,0.43,0.95,0.95v2.39
	C4.29,4.68,3.87,5.1,3.34,5.1z"/>
<path class="st0" d="M17.05,5.1H6.71c-0.52,0-0.95-0.43-0.95-0.95V1.76c0-0.52,0.43-0.95,0.95-0.95h10.34
	c0.52,0,0.95,0.43,0.95,0.95v2.39C18,4.68,17.58,5.1,17.05,5.1z"/>
<path class="st0" d="M3.34,11.29H0.95C0.42,11.29,0,10.86,0,10.34V7.94c0-0.52,0.43-0.95,0.95-0.95h2.39c0.52,0,0.95,0.43,0.95,0.95
	v2.39C4.29,10.86,3.87,11.29,3.34,11.29z"/>
<path class="st0" d="M17.05,11.29H6.71c-0.52,0-0.95-0.43-0.95-0.95V7.94c0-0.52,0.43-0.95,0.95-0.95h10.34
	c0.52,0,0.95,0.43,0.95,0.95v2.39C18,10.86,17.58,11.29,17.05,11.29z"/>
</svg>
