<?xml version="1.0" encoding="utf-8"?>
<!-- Generator: Adobe Illustrator 23.0.1, SVG Export Plug-In . SVG Version: 6.00 Build 0)  -->
<svg version="1.1" id="Camada_1" xmlns="http://www.w3.org/2000/svg" xmlns:xlink="http://www.w3.org/1999/xlink" x="0px" y="0px"
	 viewBox="0 0 18 18" style="enable-background:new 0 0 18 18;" xml:space="preserve">
<style type="text/css">
	.st0{fill:#FFFFFF;}
</style>
<path class="st0" d="M3.34,17.47H0.95C0.42,17.47,0,17.04,0,16.52v-2.39c0-0.52,0.43-0.95,0.95-0.95h2.39
	c0.52,0,0.95,0.43,0.95,0.95v2.39C4.29,17.04,3.87,17.47,3.34,17.47z"/>
<path class="st0" d="M17.05,17.47H6.71c-0.52,0-0.95-0.43-0.95-0.95v-2.39c0-0.52,0.43-0.95,0.95-0.95h10.34
	c0.52,0,0.95,0.43,0.95,0.95v2.39C18,17.04,17.58,17.47,17.05,17.47z"/>
<path class="st0" d="M17.05,11.79H6.71c-0.52,0-0.95-0.43-0.95-0.95V8.44c0-0.52,0.43-0.95,0.95-0.95h10.34
	c0.52,0,0.95,0.43,0.95,0.95v2.39C18,11.36,17.58,11.79,17.05,11.79z"/>
<path class="st0" d="M3.34,6.1H0.95C0.42,6.1,0,5.68,0,5.15V2.76c0-0.52,0.43-0.95,0.95-0.95h2.39c0.52,0,0.95,0.43,0.95,0.95v2.39
	C4.29,5.68,3.87,6.1,3.34,6.1z"/>
<path class="st0" d="M3.34,11.79H0.95C0.42,11.79,0,11.36,0,10.84V8.44c0-0.52,0.43-0.95,0.95-0.95h2.39c0.52,0,0.95,0.43,0.95,0.95
	v2.39C4.29,11.36,3.87,11.79,3.34,11.79z"/>
<g>
	<path class="st0" d="M12.03,5.27L8.98,4.89l2.69-1.48l-1.5-1.61H6.71c-0.52,0-0.95,0.43-0.95,0.95v2.39c0,0.52,0.43,0.95,0.95,0.95
		h4.99L12.03,5.27z"/>
	<path class="st0" d="M16.8,5.19l0.38,0.89C17.64,6.01,18,5.63,18,5.15V5L16.8,5.19z"/>
	<path class="st0" d="M18,3.79V2.76c0-0.13-0.03-0.26-0.08-0.37L17.1,3.33L18,3.79z"/>
</g>
<polygon class="st0" points="16.71,6.78 14.86,5.66 14.23,7.73 13.53,5.68 11.72,6.86 12.5,4.85 10.35,4.58 12.25,3.54 10.77,1.96 
	12.89,2.38 12.78,0.22 14.14,1.91 15.44,0.18 15.39,2.34 17.5,1.85 16.07,3.48 18,4.46 15.86,4.79 "/>
<polygon points="35.48,17.26 32.59,15.51 31.61,18.74 30.53,15.55 27.7,17.38 28.92,14.24 25.57,13.83 28.53,12.21 26.23,9.74 
	29.53,10.4 29.35,7.03 31.47,9.66 33.49,6.97 33.42,10.34 36.71,9.58 34.49,12.11 37.49,13.64 34.16,14.16 "/>
</svg>
