<?xml version="1.0" encoding="utf-8"?>
<!-- Generator: Adobe Illustrator 23.0.1, SVG Export Plug-In . SVG Version: 6.00 Build 0)  -->
<svg version="1.1" id="Camada_1" xmlns="http://www.w3.org/2000/svg" xmlns:xlink="http://www.w3.org/1999/xlink" x="0px" y="0px"
	 viewBox="0 0 35 35" style="enable-background:new 0 0 35 35;" xml:space="preserve">
<style type="text/css">
	.st0{display:none;fill:#9A999E;}
	.st1{fill:#858585;}
</style>
<path class="st0" d="M32.6,34.1h-30c-0.8,0-1.5-0.7-1.5-1.5v-30c0-0.8,0.7-1.5,1.5-1.5h29.9c0.8,0,1.5,0.7,1.5,1.5v29.9
	C34.1,33.4,33.4,34.1,32.6,34.1z"/>
<path class="st1" d="M123,52.3c0-0.2,0-0.2,0-0.3c0,0,0-0.1-0.4-0.1h-21.2c-0.6,0-1.2-0.4-1.4-1c-0.2-0.6-0.1-1.3,0.4-1.7l0.4-0.3
	l8.4-8c0.1-0.3,0.2-0.4,0.2-0.4s0-0.1-0.3-0.4c-0.4-0.4-0.8-0.8-1.3-1.2c-0.2-0.2-0.3-0.3-0.4-0.3c0,0-0.1,0.1-0.3,0.3l-3.6,3.6
	c-3.6,3.5-7.1,7-10.6,10.5c0,0-0.1,0.1-0.1,0.3c0,0.1,0,0.2,0.1,0.3c2.8,2.7,5.5,5.5,8.3,8.3l4,4c0.7,0.7,1.4,1.4,2.1,2.1
	c0.1,0.1,0.2,0.1,0.2,0.1c0.1,0,0.2,0,0.2-0.1c0.4-0.4,0.7-0.8,1.1-1.1l0.4-0.4c0.2-0.2,0.2-0.2,0-0.4c-0.1-0.1-0.3-0.3-0.4-0.4
	l-8.5-8.1c-0.4-0.4-0.6-1.1-0.4-1.7c0.2-0.6,0.7-1,1.4-1h0.2c0.2,0,0.3,0,0.4,0h18h0.7c0.8,0,1.6,0,2.4,0c0.1,0,0.1-0.1,0.1-0.1
	c0-0.7,0-1.4,0-2.1L123,52.3z"/>
<path class="st1" d="M52.5,10.6V13c0,2.3,0,4.5,0,6.8c0,0.5,0,1,0.1,1.5c0.6,2.1,2.4,3.5,4.7,3.5l0,0c4,0,8.1,0,12.1,0H76
	c0.6,0,1.2-0.1,1.7-0.3c1.9-0.7,3.2-2.5,3.2-4.7c0-5.4,0-10.8,0-16.2v-3c-0.9,0-1.8,0-2.7,0c-0.9,0-1.8,0-2.7,0
	c-0.2,0-0.5,0-0.7-0.2s-0.2-0.5-0.2-0.7s0-0.4-0.1-0.6c-0.5-3.7-3.3-6.4-7-6.8c-2.3-0.3-4.4,0.4-6.1,2c-0.7,0.7-1.3,1.3-1.6,2
	c-0.5,1-1,2.1-0.9,3.4c0,0.2,0,0.5-0.2,0.7c-0.3,0.2-0.6,0.2-0.8,0.2c-0.9,0-1.9,0-2.8,0c-0.8,0-1.7,0-2.5,0c0,2.7,0,5.3,0,8
	L52.5,10.6z M60.9-0.3C61.1-2.8,63-5,65.5-5.5s4.9,0.6,6.1,2.8C72-2,72.3-1.1,72.4-0.2c0,0.2,0,0.4-0.2,0.6s-0.5,0.2-0.6,0.2
	c-1.2,0-2.4,0-3.7,0h-1.7l0,0h-0.8c-1.2,0-2.4,0-3.5,0l0,0c-0.1,0-0.4,0-0.7-0.2C60.9,0.2,60.9-0.2,60.9-0.3z M54.9,3
	c0.2-0.2,0.5-0.2,0.7-0.2c0.8,0,1.6,0,2.3,0c0.2,0,0.5,0,0.7,0.2s0.2,0.6,0.2,0.7c0,0.7,0,1.5,0,2.3c0,0.4,0.2,0.7,0.7,0.9
	c0.4,0.2,0.8,0.1,1.1-0.2c0.2-0.2,0.3-0.5,0.3-0.8s0-0.6,0-0.9c0-0.4,0-0.9,0-1.3c0-0.2,0-0.4,0.2-0.6s0.5-0.2,0.6-0.2
	c3.3,0,6.6,0,9.8,0l0,0c0.2,0,0.4,0,0.6,0.2s0.2,0.5,0.2,0.6c0,0.4,0,0.7,0,1.1s0,0.8,0,1.2c0,0.6,0.4,1.1,1.1,1.1
	c0.3,0,0.5-0.1,0.7-0.2c0.2-0.2,0.4-0.5,0.4-0.8c0-0.7,0-1.5,0-2.2c0-0.2,0-0.5,0.2-0.7C74.9,3,75.3,3,75.4,3c0.8,0,1.5,0,2.3,0
	c0.2,0,0.5,0,0.7,0.2s0.2,0.5,0.2,0.7c0,1.6,0,3.2,0,4.8v1.8v2.7c0,2.3,0,4.5,0,6.8c0,0.9-0.2,1.6-0.7,2.1c-0.5,0.6-1.2,0.8-2,0.8
	l0,0c-1.4,0-2.7,0-4.1,0h-5.3h-2.7c-2.2,0-4.4,0-6.5,0l0,0c-0.8,0-1.5-0.3-2-0.8s-0.8-1.2-0.8-2c0-2.2,0-4.4,0-6.6v-2.6V9.3
	c0-1.8,0-3.6,0-5.4C54.6,3.5,54.6,3.2,54.9,3z"/>
<path d="M23.6,3.2c0.7,0,1.3,0,2,0c0.7,0,1.4,0,2.1,0c0.7,0,1.3,0,2,0c0.6,0,1.1,0,1.7,0c0.3,0,0.4,0.1,0.4,0.4c0,0.6,0,1.1,0,1.7
	c0,0.7,0,1.4,0,2.1c-0.1,0.7-0.1,1.3,0,2c0,0.7,0,1.3,0,2c-0.1,0.7-0.1,1.4,0,2.1c0,0.7,0,1.3,0,2c-0.7,0-1.4,0-2.1,0
	c-0.7,0-1.3,0-2,0c-0.7,0-1.4,0-2.1,0c-0.7,0-1.3,0-2,0c-0.7,0-1.3,0-2,0c-0.6,0-1.2,0-1.7,0c-0.3,0-0.4-0.1-0.3-0.4
	c0-0.6,0-1.1,0-1.7c0-0.7,0-1.4,0-2.1c0-0.7,0-1.3,0-2c0-0.7,0-1.3,0-2c0-1.4,0-2.7,0-4.1c0.7,0,1.4,0,2.1,0
	C22.3,3.2,22.9,3.2,23.6,3.2z M21.6,11.4c0,0.6,0,1.2,0,1.8c0,0.2,0.1,0.2,0.2,0.2c0.6,0,1.2,0,1.8,0c0.7,0.1,1.3,0.1,2,0
	c0.7,0,1.4,0,2.1,0c0.6,0.1,1.2,0,1.8,0c0.2,0,0.2-0.1,0.2-0.2c0-0.6,0-1.2,0-1.8c0-0.7,0-1.3,0-2c0-0.7,0-1.3,0-2
	c0-0.6,0-1.2,0-1.8c0-0.2,0-0.3-0.2-0.3c-0.6,0-1.2,0-1.8,0c-0.7,0-1.4,0-2.1,0c-0.7,0-1.3,0-2,0c-0.6,0-1.2,0-1.8,0
	c-0.2,0-0.3,0.1-0.2,0.3c0,0.6,0,1.2,0,1.8c0,0.7,0,1.3,0,2C21.6,10,21.6,10.7,21.6,11.4z"/>
<path d="M15.5,31.8c-0.7,0-1.4,0-2.1,0c-0.7,0-1.3,0-2,0c-0.7,0-1.3,0-2,0c-0.7,0-1.4,0-2.1,0c-0.7,0-1.3,0-2,0c-0.6,0-1.2,0-1.7,0
	c-0.2,0-0.3-0.1-0.3-0.3c0-0.6,0-1.1,0-1.7c0-0.7,0-1.4,0-2.1c0.1-0.7,0.1-1.3,0-2c0-0.7,0-1.4,0-2.1c0.1-0.7,0.1-1.3,0-2
	c0-0.7,0-1.3,0-2c0.7,0,1.4,0,2.1,0c0.7,0,1.3,0,2,0c0.7,0,1.3,0,2,0c0.7,0,1.4,0,2.1,0c0.7,0,1.3,0,2,0c0.6,0,1.1,0,1.7,0
	c0.3,0,0.4,0.1,0.4,0.4c0,0.6,0,1.1,0,1.7c0,0.7,0,1.3,0,2C15.5,26.3,15.5,29.1,15.5,31.8z M5.3,27.7c0,0.6,0,1.2,0,1.8
	c0,0.2,0.1,0.2,0.2,0.2c0.6,0,1.2,0,1.8,0c0.7,0.1,1.4,0.1,2.1,0c0.7,0,1.3,0,2,0c0.6,0.1,1.2,0,1.8,0c0.2,0,0.2-0.1,0.2-0.2
	c0-0.6,0-1.2,0-1.8c0-0.7,0-1.3,0-2c0-0.7,0-1.4,0-2.1c0-0.6,0-1.2,0-1.8c0-0.2-0.1-0.2-0.2-0.2c-0.6,0-1.2,0-1.8,0
	c-0.7,0-1.3,0-2,0c-0.7,0-1.4,0-2.1,0c-0.6,0-1.2,0-1.8,0c-0.2,0-0.2,0-0.2,0.2c0,0.6,0,1.2,0,1.8c0,0.7,0,1.4,0,2.1
	C5.3,26.4,5.3,27,5.3,27.7z"/>
<path d="M3.3,3.2c0.7,0,1.3,0,2,0c0.7,0,1.3,0,2,0c0.7,0,1.3,0,2,0c0.7,0,1.4,0,2.1,0c0.7,0,1.3,0,2,0c0.7,0,1.4,0,2.1,0
	c0,0,0,0,0,0c0,0.7,0,1.3,0,2c0,0.7,0,1.4,0,2.1c0,2,0,4.1,0,6.1c0,0.7,0,1.3,0,2c0,0,0,0-0.1,0c-0.7,0-1.3,0-2,0c-2,0-4.1,0-6.1,0
	c-0.7,0-1.3,0-2,0c-0.6,0-1.1,0-1.7,0c-0.3,0-0.4-0.1-0.4-0.4c0-0.5,0-1.1,0-1.6c0-0.7,0-1.4,0-2.1c0.1-0.7,0.1-1.3,0-2
	c0-0.7,0-1.3,0-2c0.1-0.7,0.1-1.4,0-2.1C3.2,4.6,3.2,3.9,3.3,3.2C3.2,3.2,3.2,3.2,3.3,3.2z M5.3,9.3c0,0.7,0,1.3,0,2
	c0,0.6,0,1.2,0,1.8c0,0.2,0.1,0.2,0.2,0.2c0.6,0,1.2,0,1.8,0c0.7,0.1,1.4,0.1,2.1,0c0.7,0,1.3,0,2,0c0.6,0.1,1.2,0,1.8,0
	c0.2,0,0.2-0.1,0.2-0.2c0-0.6,0-1.2,0-1.8c0-0.7,0-1.3,0-2c0-0.7,0-1.3,0-2c0-0.6,0-1.2,0-1.8c0-0.2,0-0.3-0.2-0.3
	c-0.6,0-1.2,0-1.8,0c-0.7,0-1.4,0-2.1,0c-0.7,0-1.3,0-2,0c-0.6,0-1.2,0-1.8,0c-0.2,0-0.3,0.1-0.2,0.3c0,0.6,0,1.2,0,1.8
	C5.3,8,5.3,8.7,5.3,9.3z"/>
<path d="M31.8,31.8c-0.7,0-1.3,0-2,0c0,0,0,0-0.1-0.1c0-0.7,0-1.3,0-2c0,0,0,0,0,0c0.7,0,1.4,0,2.1,0l0,0l0,0
	C31.8,30.4,31.8,31.1,31.8,31.8L31.8,31.8z"/>
<path d="M27.7,31.8c-0.7,0-1.3,0-2,0c0,0,0,0,0,0c0-0.7,0-1.3,0-2c0,0,0,0,0,0c0.7,0,1.4,0,2.1,0l0,0l0,0
	C27.7,30.4,27.7,31.1,27.7,31.8C27.7,31.8,27.7,31.8,27.7,31.8z"/>
<path d="M29.7,31.7C29.8,31.8,29.8,31.8,29.7,31.7C29.8,31.8,29.8,31.8,29.7,31.7C29.7,31.8,29.7,31.8,29.7,31.7
	C29.7,31.8,29.7,31.8,29.7,31.7z"/>
<path d="M27.7,31.8C27.7,31.8,27.7,31.8,27.7,31.8C27.7,31.8,27.7,31.8,27.7,31.8C27.7,31.8,27.7,31.8,27.7,31.8
	C27.7,31.8,27.7,31.8,27.7,31.8z"/>
<path d="M19.5,19.6C19.5,19.6,19.6,19.6,19.5,19.6c0.7,0,1.4,0,2.1,0c0.7,0,1.3,0,2,0c0.7,0,1.3,0,2,0c0,0,0,0,0.1,0
	c0,0.6,0,1.2,0,1.7c0,0.2,0.1,0.3,0.3,0.3c0.6,0,1.2,0,1.8,0c0.6,0,1.2,0,1.7,0c0.2,0,0.3-0.1,0.3-0.3c0-0.6,0-1.1,0-1.7l0,0
	c0.6,0,1.1,0,1.7,0c0.3,0,0.3,0.1,0.3,0.3c0,0.6,0,1.1,0,1.7c0,0.7,0,1.3,0,2c-0.1,0.7-0.1,1.4,0,2.1c0,0.7,0,1.3,0,2c0,0,0,0,0,0
	c-0.7,0-1.4,0-2.1,0c-0.7,0-1.3,0-2,0c-0.7,0-1.4,0-2.1,0c-0.7,0-1.3,0-2,0l0,0c0-0.6,0-1.2,0-1.8c0-0.2,0-0.3-0.2-0.3
	c-0.5,0-1,0-1.6,0c-0.2,0-0.2,0.1-0.2,0.2c0,0.6,0,1.2,0,1.8c0,0.7,0,1.4,0,2.1c0,0.7,0,1.3,0,2c-0.7,0-1.4,0-2.1,0
	c0-0.7,0-1.4,0-2.1c0-0.7,0-1.3,0-2c0-0.7,0-1.3,0-2c0-0.7,0-1.4,0-2.1c0-0.7,0-1.3,0-2C19.5,20.9,19.5,20.2,19.5,19.6z"/>
<path d="M27.7,9.3c0,0.7,0,1.3,0,2c-0.7,0-1.4,0-2.1,0c-0.7,0-1.3,0-2,0c0-0.7,0-1.3,0-2c0-0.7,0-1.3,0-2c0,0,0,0,0,0
	c0.7,0,1.3,0,2,0c0.5,0.1,1.1,0,1.7,0c0.1,0,0.3,0,0.4,0C27.7,8,27.7,8.7,27.7,9.3z"/>
<path d="M7.3,27.7c0-0.7,0-1.3,0-2c0-0.7,0-1.4,0-2.1c0.7,0,1.4,0,2.1,0c0.6,0.1,1.1,0,1.7,0c0.3,0,0.4,0.1,0.4,0.3
	c0,0.6,0,1.1,0,1.7c0,0.7,0,1.3,0,2c-0.7,0-1.3,0-2,0C8.7,27.7,8,27.7,7.3,27.7z"/>
<path d="M11.4,9.3c0,0.7,0,1.3,0,2c-0.7,0-1.3,0-2,0c-0.7,0-1.4,0-2.1,0c0-0.7,0-1.3,0-2c0-0.7,0-1.3,0-2c0,0,0,0,0,0
	c0.7,0,1.3,0,2,0c0.6,0.1,1.1,0,1.7,0c0.1,0,0.3,0,0.4,0C11.4,8,11.4,8.7,11.4,9.3z"/>
</svg>
