<?xml version="1.0" encoding="utf-8"?>
<!-- Generator: Adobe Illustrator 23.0.1, SVG Export Plug-In . SVG Version: 6.00 Build 0)  -->
<svg version="1.1" id="Camada_1" xmlns="http://www.w3.org/2000/svg" xmlns:xlink="http://www.w3.org/1999/xlink" x="0px" y="0px"
	 viewBox="0 0 35 35" style="enable-background:new 0 0 35 35;" xml:space="preserve">
<style type="text/css">
	.st0{display:none;fill:#9A999E;}
	.st1{fill:#A8A8A8;}
	.st2{fill:#858585;}
</style>
<path class="st0" d="M32.6,34.1H2.6c-0.8,0-1.5-0.7-1.5-1.5V2.6c0-0.8,0.7-1.5,1.5-1.5h29.9c0.8,0,1.5,0.7,1.5,1.5v29.9
	C34.1,33.4,33.4,34.1,32.6,34.1z"/>
<path class="st1" d="M-12.1-1.6c0-1.2-0.5-1.8-1.6-1.8c-1.9,0-3.7,0-5.5,0c-0.2,0-0.3-0.1-0.3-0.3c0-0.7,0-1.4,0-2.2
	c0-1-0.5-1.6-1.3-1.6c-0.8-0.1-1.6,0-2.4,0c-4.6,0-9.1-0.1-13.7,0.1c-0.6,0-1.1,0.5-1.2,1.1c-0.1,0.8,0,1.7,0,2.5
	c0,0.3-0.1,0.4-0.4,0.4c-1.8,0-3.7,0-5.5,0c-1,0-1.5,0.6-1.5,1.7c0,1.2,0,2.4,0,3.6c0,1.3,0.4,2.4,1,3.4c1,1.7,2.4,2.9,4,3.9
	c0.7,0.5,1.5,0.8,2.3,1.1c0.6,0.2,1.2,0.3,1.8,0.4c0.9,0.2,0.9,0.2,1.5,1.1c0.9,1.4,1.9,2.7,3.2,3.6c0.2,0.1,0.2,0.3,0.2,0.4
	c0,1.3,0,2.6,0,3.9c0,0.5,0.1,0.5-0.4,0.5c-1.1,0-2.1-0.1-3.2,0.1c-1.4,0.3-2.4,1.1-2.8,2.6c-0.1,0.4-0.1,0.9-0.1,1.4
	c0,0.8,0.2,1.1,1,1.1c2.8,0,5.6,0,8.4,0c2.8,0,5.5,0,8.3,0c0.1,0,0.2,0,0.3,0c0.5,0,0.8-0.3,0.8-0.8c0-0.3,0-0.5,0-0.8
	c-0.1-1.2-0.5-2.2-1.5-2.9c-0.6-0.4-1.3-0.6-2-0.6c-0.9,0-1.9,0-2.8,0c-0.2,0-0.3-0.1-0.3-0.3c0-1.4,0-2.7,0-4.1
	c0-0.1,0-0.3,0.1-0.4c1.5-1.1,2.6-2.6,3.6-4.2c0.2-0.3,0.4-0.4,0.7-0.5c3.2-0.5,5.9-2,8-4.7c1-1.3,1.6-2.9,1.6-4.6
	C-12.1,0.4-12.1-0.6-12.1-1.6z M-37.6,6.2c-1.6-0.6-2.9-1.6-3.9-3C-42,2.5-42,1.7-42,0.9c0-0.2,0.1-0.2,0.2-0.2c1.1,0,2.2,0,3.3,0
	c0.3,0,0.2,0.2,0.2,0.4c0,0.8,0.1,1.6,0.2,2.3c0.1,0.9,0.3,1.7,0.5,2.6C-37.6,6-37.5,6.1-37.6,6.2z M-26,3.3l0.3,4.4l-3.2-3l-3.2,3
	l0.3-4.4l-4.3-0.7l3.6-2.5l-2.2-3.8l4.2,1.3l1.6-4.1l1.6,4.1l4.2-1.3l-2.2,3.8l3.6,2.5L-26,3.3z M-15.8,1.1c0,0.1,0,0.1,0,0.2
	c0.1,1-0.4,1.8-1,2.5c-0.9,1.1-2,1.8-3.2,2.3c-0.3,0.1-0.3,0-0.2-0.3c0.4-1.6,0.6-3.2,0.6-4.9c0-0.3,0.1-0.3,0.3-0.3
	c1,0,2.1,0,3.1,0C-15.9,0.7-15.8,0.8-15.8,1.1z"/>
<path class="st2" d="M17.5,2.4c2.8,0,5.7,0,8.5,0c0.7,0,0.9,0.2,0.9,0.9c0,0.8,0,1.6,0,2.4c0,0.3,0.1,0.4,0.4,0.4c2.1,0,4.1,0,6.2,0
	c0.8,0,1,0.2,1,1c0,1.1,0,2.1,0,3.2c0,1.7-0.7,3.2-1.7,4.5c-1,1.3-2.4,2.3-3.9,3.1c-1.1,0.6-2.3,1-3.5,1.2c-0.3,0-0.4,0.2-0.5,0.4
	c-1,1.9-2.3,3.5-4.2,4.6c-0.6,0.3-1.2,0.6-1.9,0.7c-0.2,0-0.3,0.1-0.3,0.4c0,1.7,0,3.4,0,5.1c0,0.3,0.1,0.4,0.4,0.4
	c1.6,0,3.1,0,4.7,0c0.9,0,1.4,0.6,1.5,1.4c0,0.3-0.1,0.4-0.4,0.5c-0.1,0-0.2,0-0.2,0c-4.6,0-9.2,0-13.8,0c-0.6,0-0.7-0.2-0.6-0.8
	c0.2-0.6,0.7-1.1,1.4-1.1c1.6,0,3.1,0,4.7,0c0.3,0,0.4-0.1,0.4-0.4c0-1.7,0-3.3,0-5c0-0.2,0-0.4-0.3-0.4c-1.6-0.4-3-1.3-4.1-2.5
	c-0.8-0.8-1.4-1.8-1.9-2.8c-0.1-0.2-0.3-0.4-0.6-0.4c-1.9-0.3-3.7-1.1-5.3-2.3c-1.5-1.1-2.7-2.5-3.4-4.2c-0.3-0.7-0.4-1.5-0.4-2.2
	c0-1.1,0-2.1,0-3.2c0-1,0.4-1.1,1.1-1.1c2,0,4,0,6,0c0.3,0,0.4-0.1,0.4-0.4c0-0.8,0-1.6,0-2.4c0-0.2,0-0.3,0.1-0.5
	c0.1-0.3,0.2-0.4,0.5-0.4c0.7,0,1.3,0,2,0C12.9,2.4,15.2,2.4,17.5,2.4z M17.5,4.3C17.5,4.3,17.5,4.3,17.5,4.3c-2.4,0-4.8,0-7.2,0
	c-0.3,0-0.3,0.1-0.3,0.3c0,2.3-0.1,4.5,0.1,6.8c0.2,2.1,0.6,4.2,1.4,6.2c0.7,1.6,1.5,3.1,2.9,4.2c0.8,0.7,1.7,1.2,2.8,1.2
	c1.7,0.1,3-0.6,4.1-1.7c1-1,1.7-2.2,2.2-3.5c1.2-2.7,1.6-5.6,1.6-8.6c0-1.6,0-3.1,0-4.7c0-0.3-0.1-0.4-0.4-0.4
	C22.3,4.3,19.9,4.3,17.5,4.3z M5.3,8c-0.8,0-1.7,0-2.5,0C2.5,8,2.4,8.1,2.4,8.4c0,0.7,0,1.3,0,2c0,0.4,0.1,0.8,0.2,1.2
	c0.4,1.3,1.2,2.3,2.2,3.2c1.1,1,2.5,1.7,3.9,2.2c0.1,0,0.3,0.1,0.4,0.1c0.1-0.1,0-0.3,0-0.4C9,16.5,8.9,16.2,8.8,16
	c-0.4-1.5-0.6-3-0.7-4.5C8.1,10.5,8,9.4,8.1,8.4C8.1,8.1,8,8,7.7,8C6.9,8.1,6.1,8,5.3,8z M29.8,8c-0.8,0-1.6,0-2.4,0
	c-0.5,0-0.4,0-0.5,0.4c0,0.8,0,1.5,0,2.3c-0.1,2.1-0.4,4.1-1,6.1c0,0.1-0.1,0.2,0,0.3c0.1,0.1,0.2,0,0.3,0c1.1-0.3,2.2-0.9,3.2-1.6
	c0.7-0.5,1.3-1.1,1.9-1.8c0.6-0.8,1.1-1.7,1.3-2.7c0.2-0.9,0-1.9,0.1-2.8C32.6,8,32.5,8,32.3,8C31.5,8,30.6,8,29.8,8z"/>
</svg>
