<?xml version="1.0" encoding="utf-8"?>
<!-- Generator: Adobe Illustrator 23.0.1, SVG Export Plug-In . SVG Version: 6.00 Build 0)  -->
<svg version="1.1" id="Camada_1" xmlns="http://www.w3.org/2000/svg" xmlns:xlink="http://www.w3.org/1999/xlink" x="0px" y="0px"
	 viewBox="0 0 35 35" style="enable-background:new 0 0 35 35;" xml:space="preserve">
<style type="text/css">
	.st0{display:none;fill:#9A999E;}
	.st1{fill:#040006;}
</style>
<path class="st0" d="M32.57,34.09H2.63c-0.84,0-1.52-0.68-1.52-1.52V2.63c0-0.84,0.68-1.52,1.52-1.52h29.94
	c0.84,0,1.52,0.68,1.52,1.52v29.94C34.09,33.41,33.41,34.09,32.57,34.09z"/>
<g>
	<path class="st1" d="M7.99,12.41c0.3,0.4,0.3,0.4,0.67,0.05c0.16-0.16,0.31-0.33,0.53-0.42c0.99-0.83,2.11-1.43,3.3-1.92
		c0.27-0.11,0.55-0.19,0.82-0.29c0.56-0.23,1.16-0.33,1.75-0.46c0.13-0.03,0.25-0.02,0.32-0.16c-0.45-0.66-0.85-1.35-1.24-2.05
		c-0.9-1.4-1.74-2.85-2.58-4.28c-0.14-0.22-0.33-0.42-0.39-0.68c-0.38-0.6-0.83-1.13-1.53-1.37c-2.72,0-5.44,0-8.16,0
		C1.26,1.01,0.97,1.13,0.87,1.43c-0.17,0.56,0.09,1,0.4,1.43c0.5,0.68,1,1.36,1.44,2.08c0.14,0.08,0.16,0.21,0.15,0.35
		c0.35,0.14,0.46,0.49,0.66,0.76C3.75,6.36,3.95,6.68,4.16,7c1.17,1.65,2.33,3.3,3.5,4.95C7.76,12.1,7.87,12.26,7.99,12.41z"/>
	<path class="st1" d="M34.15,1.5c-0.16-0.44-0.46-0.69-0.94-0.69c-2.49,0-4.98,0-7.48,0c-0.35,0-0.64,0.13-0.93,0.3
		c-0.47,0.27-0.69,0.73-0.97,1.15c-0.15,0.23-0.3,0.47-0.44,0.7c-0.42,0.85-0.98,1.62-1.44,2.44c-0.26,0.46-0.54,0.91-0.81,1.36
		c-0.07,0.12-0.13,0.25-0.26,0.31c-0.24,0.64-0.65,1.19-1.01,1.76c-0.1,0.16-0.23,0.3-0.2,0.51c0.7,0.07,1.38,0.24,2.05,0.48
		c1.54,0.5,2.97,1.21,4.21,2.27c0.23,0.07,0.36,0.27,0.53,0.43c0.23,0.21,0.36,0.22,0.56-0.07c1.23-1.79,2.48-3.56,3.73-5.34
		c0.04-0.05,0.09-0.09,0.13-0.13c0.4-0.64,0.82-1.26,1.29-1.84c0.01-0.1,0.07-0.17,0.15-0.22c0.52-0.76,1.03-1.52,1.56-2.27
		C34.12,2.31,34.26,1.94,34.15,1.5z"/>
	<path class="st1" d="M17.5,11.13c-6.39,0-11.57,5.18-11.57,11.57c0,3.12,1.24,5.95,3.26,8.03c0,0,0,0,0,0.01
		c0,0,0.01,0.01,0.01,0.01c2.1,2.17,5.04,3.52,8.29,3.52c6.39,0,11.57-5.18,11.57-11.57C29.07,16.3,23.89,11.13,17.5,11.13z
		 M20.59,29.61l-3.14-3.05l-3.29,2.89l0.43-4.36l-4.31-0.77l3.68-2.38l-2.09-3.85l4.15,1.39l1.71-4.03l1.5,4.11l4.22-1.18
		l-2.28,3.74l3.55,2.57l-4.35,0.55L20.59,29.61z"/>
</g>
</svg>
