<?xml version="1.0" encoding="utf-8"?>
<!-- Generator: Adobe Illustrator 23.0.1, SVG Export Plug-In . SVG Version: 6.00 Build 0)  -->
<svg version="1.1" id="Camada_1" xmlns="http://www.w3.org/2000/svg" xmlns:xlink="http://www.w3.org/1999/xlink" x="0px" y="0px"
	 viewBox="0 0 35 35" style="enable-background:new 0 0 35 35;" xml:space="preserve">
<style type="text/css">
	.st0{display:none;fill:#9A999E;}
	.st1{fill:#070308;}
</style>
<path class="st0" d="M32.57,34.09H2.63c-0.84,0-1.52-0.68-1.52-1.52V2.63c0-0.84,0.68-1.52,1.52-1.52h29.94
	c0.84,0,1.52,0.68,1.52,1.52v29.94C34.09,33.41,33.41,34.09,32.57,34.09z"/>
<path class="st1" d="M34.33,6.94c0-1.22-0.53-1.81-1.63-1.81c-1.85,0-3.69-0.01-5.54,0c-0.24,0-0.32-0.07-0.31-0.33
	c0.02-0.72,0.01-1.43,0-2.15c-0.02-0.95-0.49-1.55-1.34-1.62c-0.78-0.06-1.57-0.03-2.36-0.03C18.58,1.04,14,0.95,9.42,1.06
	C8.81,1.07,8.29,1.53,8.19,2.2C8.07,3.03,8.15,3.87,8.15,4.71c0,0.35-0.09,0.43-0.4,0.43C5.91,5.13,4.07,5.13,2.22,5.14
	c-0.99,0-1.55,0.63-1.55,1.71c0,1.19-0.02,2.39,0.01,3.58c0.03,1.25,0.38,2.4,1.02,3.44c1.04,1.68,2.43,2.93,4.03,3.91
	c0.74,0.45,1.51,0.81,2.3,1.09c0.57,0.2,1.17,0.3,1.76,0.43c0.95,0.21,0.94,0.22,1.5,1.11c0.89,1.42,1.93,2.67,3.22,3.65
	c0.16,0.12,0.19,0.25,0.19,0.44c-0.01,1.29,0,2.59,0,3.88c0,0.54,0.06,0.46-0.44,0.47c-1.07,0.03-2.14-0.11-3.21,0.09
	c-1.41,0.26-2.42,1.06-2.8,2.64c-0.11,0.44-0.1,0.89-0.1,1.35c0,0.8,0.23,1.06,0.95,1.06c2.8,0,5.61,0,8.41,0c2.76,0,5.52,0,8.27,0
	c0.09,0,0.18,0,0.27,0c0.51-0.01,0.78-0.29,0.81-0.85c0.01-0.28,0.01-0.55,0-0.83c-0.06-1.24-0.55-2.2-1.53-2.85
	c-0.61-0.41-1.29-0.58-1.99-0.61c-0.92-0.03-1.85-0.02-2.77-0.01c-0.21,0-0.27-0.06-0.27-0.3c0.01-1.37,0.01-2.74,0-4.11
	c0-0.14,0.01-0.26,0.14-0.35c1.48-1.11,2.64-2.58,3.59-4.23c0.19-0.32,0.41-0.44,0.73-0.49c3.16-0.53,5.89-1.96,7.98-4.69
	c1.02-1.33,1.6-2.85,1.59-4.61C34.33,9.03,34.34,7.99,34.33,6.94z M8.83,14.79c-1.56-0.63-2.9-1.56-3.91-3.04
	c-0.47-0.69-0.55-1.47-0.51-2.28c0.01-0.18,0.09-0.2,0.22-0.2c1.1,0,2.21,0.01,3.31,0c0.27,0,0.22,0.21,0.23,0.36
	c0.03,0.78,0.1,1.55,0.2,2.32c0.11,0.87,0.27,1.73,0.47,2.58C8.86,14.59,8.9,14.66,8.83,14.79z M20.38,11.93l0.32,4.35l-3.2-2.96
	l-3.2,2.96l0.32-4.35l-4.31-0.66l3.6-2.46l-2.17-3.78l4.17,1.28l1.6-4.05l1.6,4.05l4.17-1.28L21.1,8.81l3.6,2.46L20.38,11.93z
	 M30.61,9.7c-0.01,0.06,0,0.13,0,0.19c0.07,1.03-0.41,1.8-1,2.5c-0.89,1.05-1.98,1.78-3.2,2.27c-0.25,0.1-0.29,0.03-0.23-0.25
	c0.38-1.59,0.59-3.21,0.63-4.85c0.01-0.26,0.1-0.3,0.31-0.3c1.04,0.01,2.07,0.02,3.11,0C30.55,9.25,30.65,9.37,30.61,9.7z"/>
</svg>
